<svg width="92" height="203" viewBox="0 0 92 203" fill="none" xmlns="http://www.w3.org/2000/svg">
<path d="M13.2691 42.6195C11.8115 40.4523 10.5646 37.2617 11.8033 34.6071C13.1448 31.7894 16.9027 32.0298 19.1827 32.8921C21.4872 33.8879 23.4293 35.8033 24.378 38.0888C24.6477 35.9378 24.8929 33.6533 25.8721 31.7551C26.6996 29.753 28.491 27.9445 30.6977 28.4061C32.88 28.7343 34.3376 30.9015 35.2374 32.9198C36.2106 35.3388 36.4203 37.9353 36.2239 40.4868C35.9735 43.4686 35.3415 46.539 34.1273 49.3272C34.1517 49.4607 34.0244 49.4903 33.8972 49.5199C33.9216 49.6534 33.7944 49.683 33.8188 49.8165C35.3456 49.4617 36.9702 49.641 38.3891 50.1466C41.6819 51.4696 43.7655 54.8835 44.8068 58.4004C46.4078 54.8263 47.7839 50.7476 51.2782 48.8218C53.0889 47.8441 55.1491 47.5045 57.0525 47.7583C59.0831 47.9824 61.1086 48.9039 62.3413 50.5665C63.7256 52.333 64.1654 54.7367 64.199 57.0956C64.3354 59.2914 64.0658 61.4424 63.5416 63.6525C62.4933 68.0726 60.2022 72.2248 57.5589 75.9019C54.2499 80.2905 50.4371 84.1003 46.4726 87.806C46.3453 87.8355 46.3453 87.8355 46.2181 87.8651L46.0909 87.8947C47.1474 89.3197 47.9495 90.8039 48.3944 92.5104C48.7903 93.9498 49.0347 95.2852 48.7701 96.7389C48.481 98.059 48.0403 99.2752 47.3207 100.417C46.4983 101.722 45.4998 102.789 44.3496 103.753C44.3496 103.753 44.374 103.886 44.3985 104.02C44.3985 104.02 44.5501 104.124 44.5746 104.257C44.6967 104.925 44.54 105.518 44.1043 106.037L44.0016 106.2L44.1532 106.304L44.3049 106.408C46.6522 111.988 48.5394 117.954 49.8933 123.904C49.991 124.438 50.0887 124.972 50.1864 125.506C50.1864 125.506 50.3136 125.477 50.3381 125.61C50.8419 126.189 51.7814 126.249 52.5448 126.072C53.4354 125.865 54.1988 125.688 55.065 125.347C56.3129 124.918 57.4386 123.821 57.7277 122.501C57.2676 122.886 56.6559 123.168 56.0197 123.315C55.5108 123.434 54.8747 123.581 54.3413 123.566C53.8324 123.684 53.299 123.669 52.6384 123.684C52.2323 123.639 51.8017 123.46 51.8557 123.03C51.9096 122.6 52.218 122.111 52.448 121.918C52.9865 121.236 53.8282 120.762 54.5672 120.451C54.6944 120.421 54.9489 120.362 55.0761 120.333C54.4695 119.917 53.8628 119.501 53.3345 118.788C52.6057 117.705 52.2342 116.399 52.5232 115.079C51.9705 114.233 51.6723 113.327 51.374 112.422C50.8264 110.879 50.7633 109.084 50.8518 107.393C50.9647 105.835 51.2049 104.248 51.8512 102.705C52.3947 101.326 53.2416 100.155 54.4162 99.3248C55.5908 98.495 56.9659 98.0362 58.3898 97.8444C61.5167 97.5354 64.4034 98.8136 67.1872 100.255C69.8439 101.726 72.5494 103.464 74.3592 106.106C76.1446 108.615 77.1126 111.731 76.3778 114.964C75.7457 118.035 73.7925 121.134 70.8367 122.378C68.3653 123.37 65.723 123.427 63.1346 123.054C64.6217 124.658 65.3159 127.002 65.0706 129.287C64.9923 129.583 64.7378 129.642 64.5862 129.538C63.2456 128.736 61.8806 127.8 60.9757 126.479C60.2958 125.663 59.9731 124.624 59.9049 123.526C59.3125 124.638 58.1624 125.602 57.0906 126.269C55.2015 127.543 53.1118 128.446 50.8756 128.548C51.0466 129.483 51.1932 130.284 51.3642 131.219C51.5158 131.323 51.5647 131.59 51.5891 131.724C52.0635 132.866 52.2834 134.068 52.2488 135.329C52.2437 136.026 52.2386 136.724 52.1063 137.451C52.2723 139.083 52.4138 140.581 52.4525 142.243C52.8129 148.563 52.7917 154.972 53.4066 161.233C53.8606 165.165 54.5691 169.038 55.9138 172.762C56.0908 169.38 57.814 166.474 59.8405 163.775C59.5667 163.004 59.2929 162.232 59.1707 161.564C58.5355 158.092 59.0454 154.354 60.4164 150.973C61.2683 149.104 62.3991 147.31 63.7305 145.887C65.2918 144.271 67.0048 142.759 68.2629 140.935C68.3657 140.772 68.4929 140.742 68.6446 140.846C68.7474 140.683 68.9774 140.491 69.0558 140.194C69.2614 139.868 69.8436 140.15 69.638 140.476C69.7357 141.01 69.8579 141.678 69.9556 142.212C70.1266 143.147 70.2732 143.948 70.317 144.913C70.5511 147.643 70.3792 150.328 69.9527 153.072C69.8449 153.932 69.7126 154.659 69.4775 155.549C69.6973 156.751 69.2322 157.834 68.591 158.679C67.8907 160.651 67.0388 162.52 65.6047 164.106C64.5034 165.337 62.7415 166.582 61.1465 165.838C60.5642 165.556 60.2121 165.081 59.8599 164.606C59.4487 165.258 58.8858 165.807 58.4746 166.459C57.0354 168.743 56.0267 171.205 56.1337 173.964C56.1581 174.098 56.0309 174.127 56.0553 174.261C56.5785 175.671 57.2534 177.185 58.1583 178.506C58.3588 178.877 58.5349 179.114 58.7354 179.485L58.8871 179.589C59.7187 180.51 60.4475 181.593 61.0491 182.707C63.4411 185.631 66.3176 188.304 69.2969 190.813C69.7764 191.259 70.383 191.675 70.8624 192.12C70.8624 192.12 70.8624 192.12 70.8869 192.254C71.3419 192.566 71.4396 193.1 71.2584 193.56C70.9744 194.182 70.2355 194.493 69.5505 194.374C68.7382 194.284 68.0582 193.468 67.4272 192.919C66.7717 192.236 66.0133 191.716 65.3578 191.033C62.633 188.464 60.2409 185.539 58.1817 182.259C56.2498 178.949 54.6507 175.284 53.4577 171.663C53.3599 171.128 53.1594 170.757 53.0617 170.223C53.0617 170.223 52.91 170.119 52.8856 169.986C52.4164 168.146 52.0743 166.276 51.8595 164.377C51.6691 162.611 51.5032 160.979 51.44 159.184C51.1916 154.926 51.046 150.505 50.9248 146.217C50.7242 145.846 50.5237 145.475 50.196 145.134C49.9659 145.327 49.6086 145.549 49.3542 145.608C48.8453 145.726 48.3119 145.711 47.9058 145.666C47.7786 145.696 47.7541 145.562 47.7297 145.429C47.2941 145.948 46.834 146.333 46.2222 146.614C44.3087 147.755 41.9941 148.154 39.8118 147.826C37.7812 147.601 35.8045 146.947 34.239 145.64C32.5218 144.23 31.4948 142.241 31.0794 139.971C30.7669 137.537 30.9389 134.852 31.7175 132.583C32.4961 130.314 34.1603 128.535 36.2499 127.631C38.4424 126.565 41.0603 126.374 43.3943 126.806C45.4493 127.164 47.5777 127.922 49.1432 129.229C48.8256 127.493 48.4835 125.624 48.1659 123.888C48.1659 123.888 48.1659 123.888 48.0143 123.784C47.1827 122.863 46.3755 122.076 45.4167 121.185C43.6986 123.394 40.645 124.104 38.0321 123.598C34.7342 122.972 31.9555 120.833 29.4556 118.769C27.8901 117.462 26.4518 116.126 25.0136 114.79C24.8619 114.686 24.9403 114.389 25.1703 114.196C28.8651 112.641 32.7116 111.191 36.6995 111.238C38.1479 111.18 39.6452 111.389 41.0641 111.895C41.1914 111.865 41.1913 111.865 41.343 111.969C43.0408 112.549 44.5575 113.589 45.614 115.014C46.6706 116.439 46.9342 118.605 45.7546 120.132C45.7546 120.132 45.6273 120.162 45.6518 120.295C45.779 120.266 45.8034 120.399 45.8279 120.533C46.6106 121.186 47.2661 121.869 47.9216 122.552C47.0615 118.576 46.0985 114.762 44.6266 111.067C43.9517 109.553 43.2769 108.039 42.1175 106.777C42.1175 106.777 42.1175 106.777 41.9903 106.807C41.4814 106.925 40.4635 107.162 40.2141 106.523C40.0136 106.152 40.2192 105.826 40.552 105.47C36.2211 107.173 31.147 106.264 27.8939 102.983C26.935 102.092 26.2307 101.142 25.9863 99.8063C25.9375 99.5392 26.0647 99.5097 26.192 99.4801C25.8398 99.0051 25.5904 98.367 25.341 97.7288C24.6223 95.2507 25.0488 92.5064 26.2091 90.1485C27.1394 87.9832 28.8035 86.2043 30.6927 84.9299C32.709 83.626 34.9992 83.0938 37.2598 83.1253C37.5143 83.0662 37.666 83.1701 37.9448 83.2445C34.6438 76.0763 29.7376 69.5595 28.0417 61.7397C27.4258 59.0985 27.2456 55.9383 28.3571 53.3133C28.3571 53.3133 28.3571 53.3133 28.2299 53.3429C23.6555 50.0902 17.0893 48.275 13.2691 42.6195ZM52.6679 123.12C52.5651 123.283 52.3351 123.476 52.614 123.55C52.8929 123.624 53.1473 123.565 53.4018 123.506C53.9352 123.521 54.5713 123.374 55.0802 123.255C55.9953 123.182 56.9887 122.812 57.63 121.967C57.4783 121.863 57.1994 121.788 57.0477 121.684C56.7444 121.476 56.4655 121.402 56.035 121.224C54.8654 121.356 53.3875 121.978 52.6679 123.12ZM66.3103 123.012C67.7587 122.954 69.1827 122.762 70.5578 122.303C71.9085 121.711 73.0831 120.881 73.9055 119.576C75.5747 117.1 76.3584 114.134 75.8209 111.196C75.1562 108.287 73.3953 105.912 71.3504 104.16C69.1782 102.437 66.6488 100.937 64.2171 99.9706C61.7854 99.0044 58.8937 98.4235 56.3196 99.5786C55.0961 100.141 54.0487 100.942 53.3291 102.083C52.6095 103.225 52.1932 104.575 51.9286 106.029C51.4238 109.069 51.7068 112.066 53.1105 114.664C53.135 114.797 53.2866 114.901 53.3111 115.035C53.4383 115.005 53.4627 115.139 53.4872 115.272C54.7931 117.336 56.6864 118.984 58.8391 119.876C61.4225 120.946 64.2409 121.126 66.8639 120.238C68.2391 119.779 69.4625 119.217 70.4366 118.016C71.4351 116.948 71.9786 115.569 72.2676 114.249C73.5022 108.672 70.1126 103.195 65.0437 101.588C62.5092 100.785 59.6123 100.902 57.6153 103.036C55.8484 104.978 55.2947 107.752 56.1406 110.201C57.0109 112.783 59.2319 114.773 61.9476 115.116C64.536 115.489 67.3402 114.141 68.4516 111.516C69.6415 108.595 66.2265 106.604 63.8681 106.038C62.6253 105.77 61.1769 105.828 60.3545 107.133C59.7377 108.112 59.7275 109.506 60.5347 110.293C61.3419 111.08 62.5603 111.215 63.5048 110.578C63.8621 110.355 64.1115 110.993 63.7542 111.216C62.6824 111.882 61.3368 111.778 60.4268 111.154C59.4924 110.396 58.9937 109.12 59.3071 107.933C59.5962 106.613 60.6191 105.679 61.8914 105.384C63.291 105.059 64.7343 105.698 66.026 106.233C67.1904 106.797 68.4282 107.763 68.9269 109.039C69.4501 110.449 68.9311 111.962 68.0842 113.133C66.2877 115.639 63.2342 116.348 60.548 115.441C57.8619 114.534 55.6948 112.114 55.1573 109.176C54.6687 106.505 55.7069 103.48 57.9044 101.716C60.332 99.7598 63.7082 100.089 66.316 101.293C68.7965 102.526 71.0175 104.516 72.1423 107.039C73.4432 109.799 73.5206 113.123 72.4336 115.881C71.9145 117.394 70.9404 118.595 69.663 119.588C68.3612 120.447 66.8589 120.936 65.4349 121.127C62.4597 121.54 59.3135 121.018 56.7596 119.385C55.4191 118.582 54.2842 117.454 53.3793 116.133C53.3203 117.26 53.8974 118.24 54.5773 119.056C55.0812 119.635 55.8151 120.022 56.4217 120.438C56.8279 120.482 57.234 120.527 57.6401 120.572C57.919 120.646 57.8162 120.81 57.8406 120.943C57.9923 121.047 58.1195 121.018 58.144 121.151C60.6489 122.518 63.4135 123.128 66.3103 123.012ZM64.5373 129.271C64.6797 127.15 63.9316 125.236 62.4689 123.766C62.3172 123.662 62.2928 123.528 62.42 123.499C62.1411 123.424 61.8623 123.35 61.6078 123.409C61.3289 123.334 60.9228 123.29 60.6194 123.082C60.6194 123.082 60.6194 123.082 60.6439 123.215C60.0902 125.989 62.5657 127.92 64.5373 129.271ZM50.7484 128.578C50.7484 128.578 50.8756 128.548 50.7484 128.578C52.8574 128.505 54.947 127.602 56.6061 126.52C57.9079 125.661 59.4153 124.475 59.7828 122.858C59.225 122.71 58.7944 122.531 58.2366 122.382L58.1338 122.546C58.2855 122.65 58.2855 122.65 58.3099 122.783C58.2702 124.741 56.7873 126.061 55.1577 126.578C54.1642 126.949 53.1464 127.185 52.2313 127.259C51.5707 127.273 50.9102 127.287 50.4552 126.975C50.5529 127.509 50.6506 128.044 50.7484 128.578ZM65.4822 146.036C64.5865 146.941 63.818 147.815 63.074 148.824C63.0984 148.957 63.0984 148.957 63.1228 149.091C62.4175 151.76 62.2944 154.713 62.783 157.383C62.9052 158.051 63.0273 158.719 63.2767 159.357C63.3256 159.624 63.5261 159.995 63.575 160.262C64.6763 159.032 65.6259 157.697 66.5511 156.229C65.4365 152.312 65.697 147.936 67.528 144.169C67.528 144.169 67.528 144.169 67.6308 144.006C66.9407 144.584 66.1478 145.325 65.4822 146.036ZM69.6716 142.835C69.6228 142.568 69.5495 142.168 69.3734 141.93C69.2461 141.96 69.2706 142.093 69.1433 142.123C66.6517 145.904 65.8283 150.829 66.889 155.176C67.8926 153.412 68.769 151.677 69.3175 149.6C69.6066 148.28 69.8956 146.96 69.9058 145.565C69.8864 144.734 69.8426 143.77 69.6716 142.835ZM69.3014 155.312C69.3797 155.015 69.4581 154.718 69.5365 154.422C69.8011 152.968 69.9385 151.544 70.0759 150.12C69.5812 151.766 68.9593 153.442 68.0586 155.044C67.853 155.37 67.6473 155.696 67.4417 156.022C68.0779 155.874 68.6896 155.593 69.3014 155.312ZM68.2581 159.035C68.6205 158.115 68.8556 157.225 69.0662 156.202C68.4545 156.483 67.6911 156.66 67.055 156.808L66.9277 156.838C66.1053 158.143 65.1557 159.477 64.0544 160.708C64.1816 160.678 64.2061 160.812 64.3333 160.782C65.4489 161.08 66.7751 160.354 67.7197 159.717C67.9253 159.39 68.1553 159.198 68.2581 159.035ZM60.8238 164.8C61.2004 165.408 61.8315 165.958 62.6193 165.914C63.5344 165.84 64.3761 165.366 64.9146 164.684C66.1431 163.424 67.0439 161.823 67.6902 160.28C66.8729 160.888 65.8794 161.258 64.9644 161.331C64.431 161.316 64.0249 161.271 63.5943 161.093C62.6203 162.294 61.6218 163.361 60.6477 164.562C60.7749 164.533 60.7993 164.666 60.8238 164.8ZM60.3983 163.924C60.9368 163.242 61.4996 162.694 61.9108 162.041C62.3464 161.522 62.6793 161.166 63.1149 160.648C62.7627 160.173 62.6406 159.505 62.5428 158.971C62.1224 157.398 61.8293 155.795 61.815 154.267C61.8251 152.873 61.8353 151.478 62.1243 150.158C62.1243 150.158 62.1243 150.158 62.0215 150.321C60.2984 153.227 59.4852 156.758 59.587 160.214C59.7825 161.283 60.0268 162.618 60.3983 163.924ZM67.2561 191.984C67.9117 192.667 68.7188 193.454 69.4527 193.84C69.6044 193.944 69.8833 194.018 70.0349 194.122C69.8833 194.018 69.7316 193.914 69.58 193.81C69.58 193.81 69.4527 193.84 69.4283 193.706C68.0633 192.771 66.7767 191.538 65.6418 190.41C65.6174 190.276 65.6174 190.276 65.5929 190.143L65.4657 190.172C65.994 190.885 66.6251 191.434 67.2561 191.984ZM60.9311 184.961L60.9066 184.828C60.4272 184.382 60.0506 183.774 59.6984 183.299C60.2022 183.878 60.5789 184.486 60.9311 184.961ZM49.5259 125.521C49.5991 125.921 49.6969 126.455 49.7702 126.856C49.6969 126.455 49.5991 125.921 49.5259 125.521ZM50.3321 129.927C50.3809 130.195 50.2781 130.358 50.327 130.625L50.4787 130.729C50.4298 130.462 50.3809 130.195 50.3321 129.927ZM52.1137 146.916C52.0648 146.649 52.1676 146.486 52.1187 146.218L52.0943 146.085C52.1187 146.218 52.1187 146.218 52.1431 146.352C52.1676 146.486 52.1676 146.486 52.0648 146.649C51.9376 146.678 51.962 146.812 52.1137 146.916ZM51.5955 144.809C51.5711 144.675 51.5467 144.542 51.5222 144.408C51.4194 144.571 51.4438 144.705 51.3166 144.734C51.4683 144.838 51.4683 144.838 51.5955 144.809C51.6199 144.942 51.6444 145.076 51.6444 145.076C51.6444 145.076 51.6199 144.942 51.5955 144.809ZM52.9018 164.274C53.0728 165.209 53.2438 166.144 53.4393 167.212C53.6103 168.147 53.933 169.185 54.2312 170.091C53.7864 168.384 53.4932 166.782 53.1756 165.046C52.9557 163.844 52.8875 162.746 52.7949 161.515C52.8142 162.345 52.858 163.31 52.9018 164.274ZM52.3948 157.153C52.3653 157.716 52.463 158.25 52.409 158.681L52.5363 158.651C52.3072 155.224 52.2298 151.901 52.1279 148.444C52.1279 148.444 52.1035 148.31 51.9762 148.34C52.132 151.366 52.2634 154.259 52.3948 157.153ZM48.4147 145.548C49.2514 145.771 50.2448 145.401 50.7588 144.585C51.2973 143.903 51.2535 142.939 50.8524 142.197C50.7496 142.36 50.7741 142.494 50.6468 142.523C50.1573 143.472 49.516 144.317 48.7475 145.192C48.6203 145.222 48.6448 145.355 48.4931 145.251C48.3903 145.414 48.3903 145.414 48.4147 145.548ZM47.4159 129.213C45.6448 128.232 43.438 127.771 41.4563 127.814C39.3228 127.753 37.1844 128.389 35.4225 129.634C33.6606 130.878 32.6814 132.777 32.2601 134.823C31.7359 137.034 31.7695 139.392 32.2877 141.5C32.7814 143.473 33.8624 145.032 35.5062 146.042C37.0229 147.082 38.6962 147.528 40.5752 147.648C42.4542 147.768 44.6415 147.399 46.3251 146.451C46.8096 146.199 47.1424 145.844 47.4752 145.488C47.4508 145.354 47.5536 145.191 47.6808 145.162C48.5521 144.124 49.2228 142.715 49.5119 141.395C50.0605 139.318 50.0268 136.959 49.127 134.941C48.4277 133.294 47.0922 131.794 45.3944 131.214C43.8239 130.605 42.0966 130.588 40.5403 131.507C39.0868 132.262 37.8583 133.522 37.212 135.065C36.3845 137.067 36.4181 139.426 38.1108 140.703C39.6763 142.01 41.8047 142.768 43.8648 142.429C45.6705 142.148 47.5352 140.74 47.7265 138.886C47.9423 137.165 46.9152 135.177 44.9579 135.353C44.0428 135.426 43.3771 136.138 43.2693 136.998C43.137 137.725 43.5624 138.601 44.3747 138.691C45.0597 138.81 45.7742 138.365 45.9065 137.638C45.9605 137.208 46.6211 137.194 46.5671 137.624C46.2241 139.374 43.934 139.907 43.0047 138.452C42.6036 137.71 42.5598 136.746 42.9466 135.96C43.4362 135.011 44.3024 134.67 45.2174 134.597C47.3264 134.524 48.6079 136.454 48.4411 138.442C48.323 140.697 46.6344 142.342 44.5987 142.815C42.333 143.481 39.9501 142.782 38.1302 141.534C37.2202 140.91 36.413 140.123 36.1931 138.921C35.8705 137.883 35.905 136.622 36.2185 135.435C37.389 131.682 41.4217 129.075 45.0718 130.175C47.0485 130.83 48.6384 132.27 49.4894 134.021C50.5408 136.144 50.7506 138.74 50.0992 140.98C50.0452 141.41 49.8397 141.736 49.7857 142.166C50.2753 141.217 50.7648 140.268 51.1028 139.215C51.1567 138.785 51.3379 138.325 51.3918 137.895C51.1526 135.862 50.9134 133.83 50.6741 131.797C49.9697 130.847 48.732 129.882 47.4159 129.213ZM41.8685 123.541C43.268 123.216 44.467 122.52 45.4411 121.319C44.81 120.769 44.2034 120.354 43.445 119.834C43.1906 119.893 42.9361 119.952 42.8089 119.982C42.5544 120.041 42.1972 120.263 41.9427 120.322C41.331 120.603 40.8709 120.989 40.2592 121.27C39.1874 121.937 38.0912 122.47 36.8972 122.469C36.3639 122.454 35.8305 122.439 35.3999 122.26C37.4744 123.449 39.7055 124.044 41.8685 123.541ZM32.9977 120.73C33.1005 120.567 33.2278 120.538 33.3795 120.642C34.5683 121.34 36.0117 121.979 37.4356 121.787C38.7324 121.625 40.0342 120.766 41.106 120.099C41.5905 119.847 42.2022 119.566 42.6867 119.314C41.3462 118.512 40.0057 117.709 38.5868 117.204C36.3994 117.573 34.2314 118.773 32.67 120.389L32.5428 120.418C32.7189 120.656 32.8705 120.76 32.9977 120.73ZM32.2639 120.344C32.2394 120.21 32.2394 120.21 32.3422 120.047C33.8008 118.595 35.5871 117.483 37.5984 116.877C36.1795 116.371 34.9123 115.97 33.415 115.761C31.8638 115.982 30.4347 116.871 29.4607 118.072C30.3951 118.829 31.3295 119.587 32.2639 120.344ZM26.6085 115.533C27.4157 116.32 28.1985 116.973 28.9812 117.626C29.7497 116.752 30.7971 115.951 31.7905 115.581C30.166 115.402 28.3114 115.415 26.6085 115.533ZM31.7813 113.356C30.509 113.652 29.1583 114.244 27.9104 114.673C29.486 114.585 31.1105 114.765 32.735 114.944C32.3828 114.469 32.1823 114.098 31.8301 113.623C31.7029 113.653 31.6785 113.519 31.7813 113.356ZM36.9438 112.574C35.3438 112.528 33.817 112.883 32.2902 113.238C32.6668 113.846 33.1707 114.425 33.5717 115.167C35.3479 115.451 37.0457 116.031 38.7435 116.611C38.4747 115.142 37.8243 113.761 36.9438 112.574ZM41.4601 113.334C40.3201 112.903 38.95 112.664 37.7561 112.663C38.6366 113.851 39.1842 115.394 39.4529 116.863C40.8963 117.502 42.2124 118.171 43.4257 119.003C43.4013 118.869 43.3768 118.736 43.3768 118.736C43.3035 118.335 43.2302 117.935 43.1569 117.534C42.8882 116.065 42.3406 114.522 41.4601 113.334ZM45.555 116.141C44.6989 115.087 43.6129 114.226 42.4484 113.661C42.8739 114.537 43.2994 115.413 43.5977 116.318C43.847 116.956 43.9692 117.624 43.9886 118.454C44.0374 118.721 44.1107 119.122 44.0323 119.419C44.3357 119.627 44.639 119.835 44.9423 120.043C45.2456 120.251 45.3973 120.354 45.5734 120.592C45.5734 120.592 45.549 120.458 45.6762 120.429C46.7775 119.198 46.5627 117.299 45.555 116.141ZM41.4569 106.792C41.7358 106.866 41.9903 106.807 42.2447 106.748C42.7537 106.629 43.2626 106.511 43.571 106.022C43.9038 105.666 44.085 105.206 43.9873 104.672C43.63 104.894 43.1699 105.28 42.8127 105.502C42.5826 105.695 42.3526 105.887 41.9954 106.11C41.7653 106.302 41.5109 106.361 41.4081 106.524C41.2025 106.851 41.3297 106.821 41.4569 106.792ZM30.8586 86.562C27.4865 89.1555 25.3175 93.9754 26.481 98.16C27.1752 100.505 29.1957 102.123 31.3485 103.015C33.5013 103.907 35.7864 104.072 38.1549 103.243C39.4028 102.814 40.4746 102.147 41.5464 101.48C42.491 100.843 43.5383 100.043 44.3068 99.1683C45.8437 97.4189 46.8279 94.8235 45.7764 92.7012C44.8766 90.6828 42.7533 89.2272 40.6738 88.7359C38.5944 88.2447 36.3825 88.4803 34.6451 89.8586C33.1377 91.0442 32.0557 93.1055 32.2949 95.1382C32.5342 97.1708 34.1974 99.0118 36.1008 99.2655C38.0287 99.6528 40.3483 98.5569 41.3275 96.6587C41.6114 96.0358 41.641 95.4721 41.2888 94.9971C40.8093 94.5516 40.2515 94.4028 39.6938 94.254C38.6026 94.0899 37.3547 94.5192 36.8896 95.6018C36.6056 96.2247 36.7033 96.7588 37.2611 96.9076C37.8189 97.0564 38.5579 96.7455 39.0424 96.4937C39.3996 96.2714 39.649 96.9096 39.2917 97.1318C38.3228 97.6354 36.8448 98.2573 36.2188 97.0106C35.6417 96.031 36.4641 94.7261 37.4086 94.089C39.2978 92.8146 43.2512 94.1233 42.0125 96.7779C41.0822 98.9432 38.6597 100.202 36.5018 100.008C34.2168 99.8426 32.3235 98.1943 31.7809 95.9537C31.2384 93.7131 32.1443 91.4143 33.7056 89.7985C35.497 87.99 37.9144 87.4282 40.2484 87.8603C42.5823 88.2924 44.96 89.6889 46.1388 91.7816C47.4936 94.1119 46.94 96.8857 45.3246 98.9318C44.4534 99.9695 43.4304 100.903 42.3831 101.704C41.2085 102.533 40.0095 103.23 38.6588 103.822C36.1874 104.814 33.5206 104.738 31.1917 103.608C29.7484 102.969 28.3834 102.034 27.503 100.846C28.2511 102.76 30.0955 104.142 31.8422 104.989C33.7405 105.94 35.9473 106.401 38.0318 106.195C42.3282 105.754 46.6449 102.523 48.1237 98.2812C48.5644 97.0651 48.7263 95.7745 48.482 94.4391C48.2377 93.1037 47.7633 91.961 47.1617 90.8478C46.1347 88.859 44.5987 86.9885 42.6759 85.9039C38.9576 83.7053 34.2307 83.9685 30.8586 86.562ZM29.1329 61.9038C29.9442 65.6134 31.5189 69.1455 33.1964 72.5145C35.226 76.3586 37.4613 79.8765 39.2365 83.7797L39.261 83.9132C39.6671 83.958 40.0977 84.1364 40.5038 84.1812C37.8043 78.1261 35.4865 71.9823 33.6532 65.5867C32.8857 62.8414 32.1477 59.5325 33.7925 56.9227C34.5121 55.781 35.6867 54.9511 36.9051 55.0856C38.2507 55.1906 39.464 56.0224 40.4228 56.9133C42.6438 58.903 44.1992 61.6044 45.6517 64.4688C46.7683 61.1466 48.1637 57.8987 50.3174 55.1706C50.8559 54.4886 51.5215 53.7771 52.1872 53.0655C52.8773 52.4875 53.6702 51.7463 54.5364 51.4058C56.1415 50.7543 57.761 51.6309 58.7931 52.9225C61.2095 55.9806 60.8462 60.5199 59.5241 64.1684C58.8239 66.141 57.8447 68.0392 56.8656 69.9374C55.8864 71.8356 54.8829 73.6002 53.7521 75.3944C51.3093 79.4425 48.5632 83.2828 45.5137 86.915C45.1809 87.2708 44.8287 86.7958 45.1615 86.44C47.6725 83.4897 49.983 80.1685 52.1663 76.8767C54.2223 73.6145 56.2294 70.0852 57.8305 66.5111C59.4559 63.0706 60.6803 58.8879 59.2084 55.1926C58.5335 53.6789 57.4281 51.9867 55.7008 51.9705C54.7613 51.9104 53.944 52.518 53.1267 53.1256C52.4366 53.7036 51.8737 54.2521 51.3353 54.9341C48.697 57.9139 47.1449 61.7551 45.8472 65.5372C45.7688 65.8338 45.3627 65.789 45.3138 65.5219C44.0618 63.0285 42.8098 60.5351 40.8433 58.4862C39.86 57.4617 38.8767 56.4373 37.6095 56.0357C36.3422 55.6341 35.0944 56.0633 34.2475 57.2347C32.5783 59.7109 33.4435 62.9903 34.1622 65.4684C35.1302 68.5847 36.0738 71.5674 37.1691 74.6541C38.4405 77.9783 39.7118 81.3025 41.2132 84.434C42.226 84.8947 43.2388 85.3555 44.046 86.1424C44.677 86.6918 45.1809 87.2708 45.6847 87.8498C45.6603 87.7163 45.7876 87.6867 45.9148 87.6571C52.3608 81.5649 59.1151 74.9833 62.1513 66.2031C62.8515 64.2305 63.3757 62.0204 63.5181 59.899C63.6606 57.7776 63.4997 55.4483 62.8544 53.3708C62.0573 51.1893 60.4918 49.8825 58.4907 49.0946C56.6413 48.4107 54.6595 48.4536 52.7754 49.0307C50.6369 49.6669 48.9483 51.3123 47.7147 53.2696C46.4811 55.2269 45.8297 57.4665 44.7478 59.5278C44.6694 59.8245 44.2633 59.7796 44.0872 59.5421C43.3492 56.2332 41.5444 52.8937 38.7361 51.3189C36.0795 49.848 32.3949 50.0082 30.3195 52.4396C28.3958 54.9749 28.5709 58.8323 29.1329 61.9038ZM29.2721 53.2399C29.4777 52.9136 29.7078 52.721 29.7861 52.4243C30.633 51.253 31.7048 50.5862 32.9527 50.157C32.9527 50.157 32.9527 50.157 32.9282 50.0235C33.1583 49.8308 33.2366 49.5341 33.3394 49.371C33.315 49.2375 33.4422 49.208 33.4178 49.0744C33.3934 48.9409 33.5206 48.9113 33.6478 48.8817C34.5781 46.7165 35.0778 44.3728 35.4259 41.9252C35.774 39.4776 35.7159 36.9852 35.1489 34.6111C34.6308 32.504 33.5793 30.3816 31.681 29.4306C30.7954 28.9403 29.7287 28.9098 28.8869 29.3839C27.9179 29.8875 27.2767 30.7326 26.7871 31.6817C25.4996 34.0692 25.2493 37.0509 24.9501 39.7656C24.8961 40.1958 24.3628 40.1805 24.2895 39.7799C23.698 37.2722 21.986 35.1642 19.7599 33.8717C17.7099 32.8167 14.0059 32.1461 12.4639 34.5928C11.7443 35.7345 11.7341 37.1291 12.1057 38.4349C12.35 39.7703 13.0004 41.1505 13.8564 42.2045C15.4902 44.6092 17.7895 46.3024 20.1917 47.8324C23.2005 49.7783 26.3661 51.1309 29.2721 53.2399Z" fill="#B6B3A9"/>
<path d="M11.3879 67.0524C11.296 65.83 12.0787 65.094 13.0596 64.7262C15.1469 63.9614 17.3503 64.5515 19.1478 65.7895C18.7564 64.3607 18.3408 62.7994 18.8529 61.2974C19.365 59.7954 20.4521 58.5736 22.008 58.4859C23.7136 58.5014 25.2357 59.6656 26.1297 60.9768C27.1493 62.2585 27.7147 63.923 27.9033 65.6757C28.1401 67.6934 27.8745 69.8288 27.459 71.861L27.4832 71.9936C27.4978 73.5105 27.5124 75.0274 27.5269 76.5443C27.498 77.104 27.6188 77.7668 27.3144 78.2527C26.8844 78.7679 26.2852 78.3553 25.86 78.1784C23.3329 77.2494 20.9072 76.1584 18.5588 74.7729C16.3602 73.4906 14.1375 72.0758 12.596 70.0868C11.9243 69.2765 11.3541 68.3043 11.3879 67.0524ZM13.2 69.8073C14.5675 71.5605 16.365 72.7984 18.264 73.8744C20.3128 75.0535 22.3374 76.1002 24.4635 76.9848C25.0385 77.2649 25.7392 77.5155 26.29 77.6631C26.4156 77.6337 26.7152 77.84 26.8408 77.8106C26.9665 77.7812 26.9181 77.5161 26.9181 77.5161C26.9713 77.089 26.9229 76.8239 26.9761 76.3968C27.0098 75.145 27.0194 73.7606 26.9275 72.5382C26.7777 72.435 26.7536 72.3025 26.855 72.1405C27.7053 68.9009 27.9564 65.2486 26.3714 62.3024C25.603 60.9618 24.6076 59.8126 23.2063 59.3112C22.5057 59.0605 21.7036 58.9718 20.9982 59.4133C20.3942 59.6928 19.9883 60.3407 19.7081 60.9591C18.9931 62.785 19.631 64.8471 20.1964 66.5116C20.2689 66.9092 19.9162 67.13 19.7422 66.8943C18.2974 65.4356 16.2197 64.8161 14.1855 65.1539C13.1563 65.2565 12.1996 65.7568 12.1416 66.8761C11.9581 68.0247 12.5283 68.997 13.2 69.8073Z" fill="#B6B3A9"/>
<path d="M29.2518 11.019C29.7059 10.6364 30.2035 11.2109 30.5272 11.5497C30.8509 11.8886 31.0249 12.1242 31.223 12.4925C30.962 10.3424 31.0778 8.10426 32.4691 6.39676C33.102 5.55771 34.0344 4.92494 35.0634 4.82233C35.9669 4.74912 36.9428 5.07353 37.6917 5.58927C39.5373 7.0921 39.9723 9.47783 39.7308 11.7454C40.8951 10.2293 41.9096 8.60991 43.5715 7.66825C45.3831 6.82975 47.2867 7.2135 48.3786 8.89269C49.4706 10.5719 49.5818 12.6187 49.0167 14.5475C48.3742 16.7707 47.181 18.8465 45.9395 20.6571C44.7221 22.6003 43.0554 24.234 41.3403 25.6027C41.3403 25.6027 41.3403 25.6027 41.4901 25.7059C41.8138 26.0447 42.0119 26.4129 42.21 26.7811C42.384 27.0168 42.4565 27.4144 42.5048 27.6795C42.5289 27.8121 42.4275 27.974 42.3261 28.1359C42.2246 28.2978 41.9734 28.3566 41.698 28.2829C41.5482 28.1797 41.3984 28.0766 41.2487 27.9735C41.0989 27.8703 41.0747 27.7377 40.9008 27.502C40.751 27.3989 40.7027 27.1338 40.6785 27.0013C39.8959 27.7372 38.9635 28.37 38.1809 29.1059C38.0794 29.2678 37.804 29.194 37.6301 28.9583C36.3932 26.4839 35.2577 23.8476 34.1464 21.3438C33.209 19.0756 32.2716 16.8075 31.711 14.4511C31.5854 14.4805 31.5854 14.4806 31.4356 14.3774C30.6626 13.7292 29.8896 13.0809 29.3436 12.2413C29.0199 11.9024 28.9232 11.3723 29.2518 11.019ZM41.0554 26.9131C41.0554 26.9131 41.181 26.8837 41.0554 26.9131C41.0795 27.0457 41.0795 27.0457 41.0795 27.0457C41.1037 27.1782 41.2293 27.1488 41.2535 27.2814L41.4032 27.3845C41.4032 27.3845 41.4274 27.517 41.553 27.4876C41.553 27.4876 41.553 27.4876 41.5772 27.6202C41.5772 27.6202 41.5772 27.6202 41.553 27.4876C41.5288 27.3551 41.5047 27.2226 41.3549 27.1194C41.3307 26.9869 41.181 26.8837 41.007 26.6481C40.9829 26.5155 40.8573 26.5449 40.8331 26.4124C40.8331 26.4124 40.7075 26.4418 40.7317 26.5743C41.007 26.6481 41.0312 26.7806 41.0554 26.9131ZM31.9912 13.8328C32.5759 16.3217 33.5375 18.7224 34.4748 20.9905C35.5862 23.4943 36.6733 25.8656 37.7847 28.3694C38.5673 27.6335 39.3741 27.0301 40.1567 26.2942C40.1567 26.2942 40.1567 26.2943 40.1325 26.1617C40.1084 26.0292 40.2098 25.8672 40.3355 25.8378C40.3113 25.7053 40.263 25.4402 40.5142 25.3815C42.1519 24.3073 43.5674 22.7323 44.7317 21.2161C45.8718 19.5674 46.9877 17.7862 47.8282 15.9312C48.5432 14.1055 48.9586 12.0736 48.2434 10.3063C47.5525 8.67143 45.9291 7.66934 44.1947 8.21338C41.982 9.00753 40.7115 11.3777 39.3444 13.2178C39.1173 13.4091 38.7163 13.3647 38.7936 13.0703C39.1607 10.7733 39.2282 8.27 37.6096 6.57584C36.9622 5.89818 36.0877 5.41182 35.0586 5.51442C34.0296 5.61703 33.2228 6.22041 32.5899 7.05946C31.247 9.03203 31.5804 11.5797 31.9912 13.8328ZM30.4935 12.8014C30.4935 12.8014 30.5176 12.9339 30.6432 12.9045C30.4451 12.5363 30.2712 12.3006 30.0973 12.0649C30.0731 11.9324 29.9233 11.8292 29.7977 11.8586C29.7977 11.8586 29.7977 11.8586 29.6479 11.7555C29.6721 11.888 29.846 12.1237 29.9958 12.2268C30.1456 12.33 30.3195 12.5657 30.4935 12.8014Z" fill="#B6B3A9"/>
<path d="M33.154 10.9345C33.2845 10.2122 33.3909 9.35731 34.0728 8.78272C35.5381 7.47143 36.902 9.91914 37.4727 10.8923C38.0434 11.8655 38.3384 12.7649 38.6577 13.7969C38.7302 14.195 38.827 14.7257 39.2768 15.0355C39.4267 15.1388 39.5766 15.242 39.8281 15.1832C39.9538 15.1538 40.1811 14.9622 40.1569 14.8295C40.1086 14.5642 40.2101 14.4021 40.3358 14.3727C40.8484 12.8693 41.7624 11.4103 43.1745 10.5265C43.7548 10.114 44.4851 9.80478 45.2105 10.1884C45.7861 10.4688 46.1343 10.9406 46.231 11.4714C46.6228 12.9015 46.1344 14.5375 45.5735 15.7755C44.8094 17.3378 43.6198 18.7229 42.5801 20.2113C41.2115 22.0533 39.8429 23.8953 38.4744 25.7374C38.3728 25.8995 37.9956 25.9877 37.9473 25.7224C37.0573 23.7171 36.3173 21.8151 35.5531 19.7804C34.8131 17.8785 34.0731 15.9765 33.7103 13.9862C33.1154 12.8803 32.9461 11.9516 33.154 10.9345ZM35.4853 18.6896C36.2737 20.8569 37.1637 22.8622 38.0536 24.8674C39.9541 22.3475 41.9562 19.6656 43.8325 17.013C44.6691 15.8488 45.3558 14.5814 45.6169 13.1369C45.8006 11.9871 45.3363 10.159 43.8758 10.7774C43.1455 11.0867 42.4878 11.7939 42.0574 12.3097C41.5255 12.9875 41.1435 13.7686 40.8872 14.5203C40.9114 14.653 40.7856 14.6824 40.6599 14.7118C40.7566 15.2426 40.3021 15.6257 39.8233 15.876C39.0689 16.0526 38.5707 15.4774 38.324 14.8434C38.029 13.9441 37.7581 13.1774 37.4631 12.278C37.0423 11.4081 36.6215 10.5381 36.0992 9.83031C35.7751 9.49111 35.5526 8.98978 35.0255 8.97479C34.6241 8.93038 34.2953 9.284 34.1163 9.7409C33.7585 10.6547 33.7005 11.775 33.8698 12.7038C33.9811 14.7529 34.7453 16.7876 35.4853 18.6896Z" fill="#B6B3A9"/>
</svg>
