<svg width="92" height="203" viewBox="0 0 92 203" fill="none" xmlns="http://www.w3.org/2000/svg">
<path d="M78.6804 42.6197C80.138 40.4525 81.385 37.2618 80.1463 34.6072C78.8048 31.7895 75.0468 32.0299 72.7668 32.8922C70.4624 33.8881 68.5203 35.8035 67.5716 38.0889C67.3019 35.938 67.0566 33.6534 66.0775 31.7553C65.25 29.7531 63.4586 27.9446 61.2519 28.4063C59.0696 28.7344 57.612 30.9016 56.7121 32.92C55.739 35.339 55.5293 37.9354 55.7257 40.487C55.976 43.4687 56.6081 46.5392 57.8223 49.3273C57.7979 49.4609 57.9251 49.4904 58.0524 49.52C58.0279 49.6535 58.1552 49.6831 58.1307 49.8167C56.604 49.4619 54.9794 49.6412 53.5605 50.1467C50.2677 51.4698 48.1841 54.8837 47.1428 58.4005C45.5418 54.8264 44.1657 50.7477 40.6714 48.8219C38.8606 47.8442 36.8005 47.5047 34.8971 47.7584C32.8665 47.9826 30.8409 48.904 29.6083 50.5666C28.2239 52.3331 27.7842 54.7369 27.7506 57.0958C27.6141 59.2916 27.8838 61.4425 28.408 63.6526C29.4563 68.0728 31.7474 72.2249 34.3907 75.902C37.6997 80.2907 41.5125 84.1004 45.477 87.8061C45.6042 87.8357 45.6042 87.8357 45.7315 87.8653L45.8587 87.8948C44.8022 89.3199 44.0001 90.8041 43.5552 92.5105C43.1592 93.9499 42.9149 95.2853 43.1795 96.739C43.4686 98.0591 43.9093 99.2753 44.6289 100.417C45.4513 101.722 46.4498 102.789 47.6 103.753C47.6 103.753 47.5756 103.886 47.5511 104.02C47.5511 104.02 47.3994 104.124 47.375 104.257C47.2529 104.925 47.4096 105.518 47.8452 106.037L47.948 106.2L47.7964 106.304L47.6447 106.408C45.2974 111.988 43.4102 117.954 42.0563 123.904C41.9586 124.438 41.8609 124.972 41.7631 125.506C41.7631 125.506 41.6359 125.477 41.6115 125.61C41.1077 126.189 40.1682 126.25 39.4048 126.072C38.5142 125.865 37.7508 125.688 36.8846 125.347C35.6367 124.918 34.5109 123.821 34.2219 122.501C34.682 122.886 35.2937 123.168 35.9299 123.316C36.4388 123.434 37.0749 123.582 37.6083 123.566C38.1172 123.685 38.6506 123.669 39.3112 123.684C39.7173 123.639 40.1479 123.46 40.0939 123.03C40.04 122.6 39.7316 122.111 39.5015 121.918C38.9631 121.236 38.1214 120.762 37.3824 120.451C37.2552 120.421 37.0007 120.362 36.8735 120.333C37.4801 119.917 38.0868 119.501 38.615 118.788C39.3439 117.705 39.7154 116.399 39.4264 115.079C39.9791 114.233 40.2773 113.328 40.5756 112.422C41.1232 110.879 41.1863 109.084 41.0978 107.393C40.9848 105.835 40.7447 104.248 40.0984 102.705C39.5548 101.326 38.708 100.155 37.5334 99.325C36.3588 98.4951 34.9837 98.0363 33.5597 97.8446C30.4329 97.5356 27.5462 98.8138 24.7623 100.255C22.1057 101.726 19.4002 103.464 17.5904 106.106C15.805 108.615 14.837 111.731 15.5718 114.965C16.2038 118.035 18.1571 121.134 21.1129 122.378C23.5842 123.37 26.2266 123.427 28.815 123.054C27.3279 124.658 26.6337 127.002 26.8789 129.287C26.9573 129.583 27.2118 129.643 27.3634 129.539C28.704 128.736 30.0689 127.801 30.9738 126.479C31.6538 125.663 31.9765 124.624 32.0447 123.526C32.637 124.639 33.7872 125.602 34.859 126.269C36.7481 127.543 38.8378 128.446 41.074 128.548C40.903 129.483 40.7564 130.284 40.5854 131.219C40.4337 131.323 40.3849 131.59 40.3604 131.724C39.8861 132.866 39.6662 134.068 39.7008 135.329C39.7059 136.027 39.7109 136.724 39.8433 137.451C39.6773 139.083 39.5358 140.581 39.4971 142.243C39.1366 148.563 39.1579 154.972 38.543 161.233C38.089 165.165 37.3805 169.038 36.0358 172.763C35.8588 169.38 34.1356 166.474 32.1091 163.775C32.3829 163.004 32.6567 162.232 32.7789 161.564C33.4141 158.092 32.9042 154.354 31.5332 150.973C30.6813 149.104 29.5505 147.31 28.2191 145.887C26.6578 144.271 24.9448 142.759 23.6867 140.935C23.5839 140.772 23.4567 140.743 23.305 140.847C23.2022 140.683 22.9722 140.491 22.8938 140.194C22.6882 139.868 22.106 140.15 22.3116 140.476C22.2139 141.011 22.0917 141.678 21.994 142.213C21.823 143.147 21.6764 143.949 21.6326 144.913C21.3984 147.643 21.5704 150.328 21.9968 153.072C22.1047 153.933 22.237 154.659 22.4721 155.549C22.2522 156.751 22.7174 157.834 23.3586 158.679C24.0589 160.652 24.9108 162.52 26.3449 164.106C27.4462 165.337 29.2081 166.582 30.8031 165.839C31.3853 165.556 31.7375 165.081 32.0897 164.606C32.5009 165.259 33.0638 165.807 33.475 166.46C34.9142 168.743 35.9228 171.205 35.8159 173.964C35.7915 174.098 35.9187 174.128 35.8943 174.261C35.3711 175.671 34.6962 177.185 33.7913 178.506C33.5908 178.877 33.4147 179.114 33.2142 179.485L33.0625 179.589C32.2309 180.51 31.5021 181.593 30.9005 182.707C28.5085 185.631 25.632 188.304 22.6526 190.814C22.1732 191.259 21.5666 191.675 21.0872 192.12C21.0872 192.12 21.0872 192.12 21.0627 192.254C20.6077 192.566 20.51 193.1 20.6912 193.56C20.9752 194.183 21.7141 194.494 22.3991 194.374C23.2114 194.285 23.8913 193.468 24.5224 192.919C25.1779 192.236 25.9362 191.716 26.5918 191.033C29.3166 188.464 31.7087 185.54 33.7678 182.259C35.6998 178.949 37.2989 175.284 38.4919 171.663C38.5897 171.129 38.7902 170.758 38.8879 170.223C38.8879 170.223 39.0395 170.119 39.064 169.986C39.5332 168.146 39.8753 166.276 40.0901 164.377C40.2805 162.612 40.4464 160.98 40.5095 159.184C40.758 154.926 40.9036 150.505 41.0248 146.218C41.2254 145.847 41.4259 145.476 41.7536 145.134C41.9837 145.327 42.3409 145.549 42.5954 145.608C43.1043 145.726 43.6377 145.711 44.0438 145.666C44.171 145.696 44.1955 145.562 44.2199 145.429C44.6555 145.948 45.1156 146.333 45.7273 146.614C47.6409 147.755 49.9555 148.154 52.1378 147.826C54.1684 147.602 56.1451 146.947 57.7106 145.64C59.4278 144.23 60.4548 142.241 60.8702 139.971C61.1827 137.537 61.0107 134.852 60.2321 132.583C59.4535 130.314 57.7893 128.535 55.6997 127.632C53.5072 126.565 50.8893 126.374 48.5553 126.807C46.5003 127.164 44.3719 127.923 42.8064 129.229C43.124 127.493 43.466 125.624 43.7837 123.888C43.7837 123.888 43.7837 123.888 43.9353 123.784C44.7669 122.863 45.5741 122.076 46.5329 121.185C48.251 123.395 51.3046 124.104 53.9175 123.598C57.2153 122.972 59.9941 120.833 62.494 118.769C64.0595 117.462 65.4978 116.126 66.936 114.79C67.0877 114.686 67.0093 114.389 66.7793 114.196C63.0845 112.642 59.238 111.191 55.2501 111.239C53.8016 111.18 52.3044 111.389 50.8855 111.895C50.7582 111.865 50.7582 111.865 50.6066 111.969C48.9088 112.549 47.3921 113.589 46.3356 115.014C45.279 116.439 45.0153 118.605 46.195 120.132C46.195 120.132 46.3223 120.162 46.2978 120.295C46.1706 120.266 46.1461 120.399 46.1217 120.533C45.339 121.186 44.6835 121.869 44.028 122.552C44.8881 118.576 45.8511 114.762 47.323 111.067C47.9978 109.553 48.6727 108.039 49.8321 106.777C49.8321 106.777 49.8321 106.777 49.9593 106.807C50.4682 106.925 51.4861 107.162 51.7355 106.524C51.936 106.153 51.7304 105.826 51.3976 105.471C55.7285 107.173 60.8026 106.264 64.0557 102.983C65.0146 102.092 65.7189 101.142 65.9632 99.8064C66.0121 99.5394 65.8849 99.5098 65.7576 99.4802C66.1098 99.0052 66.3592 98.3671 66.6086 97.729C67.3273 95.2508 66.9008 92.5066 65.7405 90.1486C64.8102 87.9834 63.1461 86.2044 61.2569 84.9301C59.2406 83.6262 56.9504 83.094 54.6898 83.1255C54.4353 83.0663 54.2836 83.1703 54.0047 83.2447C57.3058 76.0764 62.212 69.5596 63.9079 61.7398C64.5237 59.0986 64.7039 55.9385 63.5925 53.3134C63.5925 53.3134 63.5925 53.3134 63.7197 53.343C68.294 50.0903 74.8603 48.2751 78.6804 42.6197ZM39.2817 123.12C39.3845 123.283 39.6145 123.476 39.3356 123.55C39.0567 123.625 38.8023 123.565 38.5478 123.506C38.0144 123.522 37.3783 123.374 36.8693 123.255C35.9543 123.182 34.9609 122.812 34.3196 121.967C34.4713 121.863 34.7502 121.788 34.9018 121.684C35.2052 121.476 35.4841 121.402 35.9146 121.224C37.0841 121.356 38.5621 121.978 39.2817 123.12ZM25.6393 123.012C24.1909 122.954 22.7669 122.762 21.3918 122.304C20.0411 121.711 18.8665 120.881 18.0441 119.576C16.3749 117.1 15.5912 114.134 16.1286 111.196C16.7934 108.288 18.5543 105.912 20.5992 104.16C22.7713 102.438 25.3008 100.937 27.7324 99.9708C30.1641 99.0045 33.0559 98.4236 35.63 99.5787C36.8535 100.141 37.9008 100.942 38.6204 102.084C39.34 103.225 39.7563 104.575 40.0209 106.029C40.5258 109.07 40.2427 112.067 38.8391 114.664C38.8146 114.798 38.663 114.901 38.6385 115.035C38.5113 115.005 38.4869 115.139 38.4624 115.273C37.1565 117.336 35.2632 118.984 33.1104 119.876C30.5271 120.946 27.7086 121.126 25.0856 120.238C23.7105 119.78 22.4871 119.217 21.513 118.016C20.5145 116.949 19.971 115.569 19.6819 114.249C18.4474 108.672 21.8369 103.195 26.9059 101.589C29.4404 100.785 32.3372 100.902 34.3342 103.036C36.1012 104.978 36.6549 107.752 35.809 110.201C34.9386 112.783 32.7176 114.773 30.002 115.116C27.4136 115.489 24.6094 114.141 23.4979 111.516C22.3081 108.595 25.7231 106.604 28.0815 106.038C29.3243 105.77 30.7727 105.828 31.5951 107.133C32.2119 108.112 32.222 109.507 31.4149 110.293C30.6077 111.08 29.3893 111.215 28.4447 110.578C28.0875 110.355 27.8381 110.994 28.1954 111.216C29.2672 111.883 30.6128 111.778 31.5227 111.154C32.4572 110.396 32.9559 109.12 32.6424 107.934C32.3534 106.613 31.3305 105.68 30.0582 105.384C28.6586 105.059 27.2153 105.698 25.9236 106.233C24.7591 106.798 23.5214 107.763 23.0226 109.039C22.4994 110.449 23.0185 111.962 23.8654 113.133C25.6618 115.639 28.7154 116.349 31.4015 115.441C34.0877 114.534 36.2548 112.114 36.7922 109.176C37.2809 106.506 36.2427 103.48 34.0452 101.716C31.6176 99.76 28.2414 100.089 25.6336 101.293C23.1531 102.526 20.932 104.516 19.8073 107.039C18.5064 109.799 18.429 113.123 19.516 115.881C20.0351 117.394 21.0091 118.595 22.2865 119.588C23.5884 120.447 25.0907 120.936 26.5147 121.127C29.4899 121.54 32.6361 121.019 35.1899 119.385C36.5305 118.582 37.6654 117.454 38.5703 116.133C38.6293 117.26 38.0522 118.24 37.3722 119.056C36.8684 119.635 36.1345 120.022 35.5278 120.438C35.1217 120.483 34.7156 120.527 34.3095 120.572C34.0306 120.647 34.1334 120.81 34.1089 120.943C33.9573 121.047 33.83 121.018 33.8056 121.151C31.3006 122.518 28.5361 123.129 25.6393 123.012ZM27.4123 129.271C27.2698 127.15 28.018 125.236 29.4807 123.766C29.6323 123.662 29.6568 123.528 29.5296 123.499C29.8084 123.424 30.0873 123.35 30.3418 123.409C30.6207 123.335 31.0268 123.29 31.3302 123.082C31.3302 123.082 31.3302 123.082 31.3057 123.215C31.8594 125.989 29.3839 127.92 27.4123 129.271ZM41.2012 128.578C41.2012 128.578 41.074 128.548 41.2012 128.578C39.0922 128.505 37.0026 127.602 35.3435 126.52C34.0417 125.661 32.5342 124.475 32.1668 122.859C32.7246 122.71 33.1552 122.531 33.713 122.383L33.8158 122.546C33.6641 122.65 33.6641 122.65 33.6397 122.783C33.6793 124.742 35.1623 126.061 36.7919 126.579C37.7853 126.949 38.8032 127.185 39.7182 127.259C40.3788 127.273 41.0394 127.287 41.4944 126.975C41.3967 127.51 41.2989 128.044 41.2012 128.578ZM26.4674 146.036C27.3631 146.941 28.1316 147.815 28.8756 148.824C28.8512 148.957 28.8512 148.957 28.8268 149.091C29.5321 151.761 29.6552 154.713 29.1666 157.384C29.0444 158.051 28.9223 158.719 28.6729 159.357C28.624 159.624 28.4235 159.995 28.3746 160.262C27.2733 159.032 26.3237 157.697 25.3985 156.229C26.5131 152.312 26.2526 147.936 24.4215 144.169C24.4215 144.169 24.4215 144.169 24.3187 144.006C25.0088 144.584 25.8017 145.325 26.4674 146.036ZM22.278 142.835C22.3268 142.568 22.4001 142.168 22.5762 141.93C22.7034 141.96 22.679 142.093 22.8062 142.123C25.2979 145.904 26.1212 150.829 25.0606 155.176C24.057 153.412 23.1806 151.677 22.632 149.6C22.343 148.28 22.0539 146.96 22.0438 145.565C22.0632 144.735 22.1069 143.77 22.278 142.835ZM22.6482 155.312C22.5699 155.015 22.4915 154.719 22.4131 154.422C22.1485 152.968 22.0111 151.544 21.8737 150.12C22.3684 151.766 22.9903 153.442 23.891 155.044C24.0966 155.37 24.3022 155.696 24.5078 156.022C23.8717 155.875 23.26 155.593 22.6482 155.312ZM23.6915 159.035C23.3291 158.115 23.094 157.225 22.8833 156.202C23.4951 156.483 24.2584 156.661 24.8946 156.808L25.0218 156.838C25.8442 158.143 26.7939 159.477 27.8952 160.708C27.768 160.678 27.7435 160.812 27.6163 160.782C26.5007 161.08 25.1745 160.354 24.2299 159.717C24.0243 159.391 23.7943 159.198 23.6915 159.035ZM31.1258 164.8C30.7492 165.408 30.1181 165.958 29.3303 165.914C28.4152 165.84 27.5735 165.366 27.035 164.684C25.8065 163.424 24.9057 161.823 24.2594 160.28C25.0767 160.888 26.0702 161.258 26.9852 161.332C27.5186 161.316 27.9247 161.272 28.3553 161.093C29.3293 162.294 30.3278 163.361 31.3019 164.562C31.1746 164.533 31.1502 164.666 31.1258 164.8ZM31.5513 163.924C31.0128 163.242 30.45 162.694 30.0388 162.041C29.6031 161.522 29.2703 161.167 28.8347 160.648C29.1869 160.173 29.309 159.505 29.4068 158.971C29.8272 157.398 30.1203 155.795 30.1346 154.267C30.1244 152.873 30.1143 151.478 29.8252 150.158C29.8252 150.158 29.8252 150.158 29.928 150.321C31.6512 153.228 32.4644 156.758 32.3626 160.215C32.1671 161.283 31.9228 162.618 31.5513 163.924ZM24.6934 191.984C24.0379 192.667 23.2307 193.454 22.4969 193.84C22.3452 193.944 22.0663 194.018 21.9147 194.122C22.0663 194.018 22.218 193.915 22.3696 193.811C22.3696 193.811 22.4969 193.84 22.5213 193.707C23.8863 192.771 25.1729 191.538 26.3078 190.41C26.3322 190.276 26.3322 190.276 26.3567 190.143L26.4839 190.172C25.9556 190.885 25.3245 191.434 24.6934 191.984ZM31.0185 184.962L31.043 184.828C31.5224 184.383 31.899 183.774 32.2512 183.299C31.7474 183.878 31.3707 184.487 31.0185 184.962ZM42.4237 125.521C42.3504 125.921 42.2527 126.456 42.1794 126.856C42.2527 126.456 42.3504 125.921 42.4237 125.521ZM41.6175 129.928C41.5686 130.195 41.6715 130.358 41.6226 130.625L41.4709 130.729C41.5198 130.462 41.5686 130.195 41.6175 129.928ZM39.8359 146.916C39.8848 146.649 39.782 146.486 39.8309 146.219L39.8553 146.085C39.8309 146.219 39.8309 146.219 39.8065 146.352C39.782 146.486 39.782 146.486 39.8848 146.649C40.012 146.678 39.9876 146.812 39.8359 146.916ZM40.3541 144.809C40.3785 144.675 40.4029 144.542 40.4274 144.408C40.5302 144.571 40.5058 144.705 40.633 144.734C40.4813 144.838 40.4813 144.838 40.3541 144.809C40.3296 144.942 40.3052 145.076 40.3052 145.076C40.3052 145.076 40.3296 144.942 40.3541 144.809ZM39.0478 164.274C38.8768 165.209 38.7058 166.144 38.5103 167.212C38.3393 168.147 38.0166 169.186 37.7184 170.091C38.1632 168.384 38.4564 166.782 38.774 165.046C38.9939 163.844 39.0621 162.746 39.1547 161.515C39.1354 162.345 39.0916 163.31 39.0478 164.274ZM39.5548 157.153C39.5843 157.716 39.4866 158.251 39.5406 158.681L39.4133 158.651C39.6424 155.224 39.7198 151.901 39.8217 148.444C39.8217 148.444 39.8461 148.31 39.9733 148.34C39.8176 151.367 39.6862 154.26 39.5548 157.153ZM43.5349 145.548C42.6982 145.771 41.7048 145.401 41.1908 144.586C40.6523 143.904 40.6961 142.939 41.0972 142.197C41.2 142.36 41.1755 142.494 41.3028 142.523C41.7923 143.472 42.4336 144.318 43.202 145.192C43.3293 145.222 43.3048 145.355 43.4565 145.251C43.5593 145.414 43.5593 145.414 43.5349 145.548ZM44.5337 129.213C46.3048 128.233 48.5115 127.771 50.4933 127.814C52.6267 127.753 54.7652 128.389 56.5271 129.634C58.289 130.878 59.2682 132.777 59.6895 134.824C60.2137 137.034 60.18 139.393 59.6619 141.5C59.1682 143.473 58.0872 145.032 56.4434 146.042C54.9267 147.082 53.2534 147.528 51.3744 147.648C49.4954 147.769 47.3081 147.399 45.6245 146.451C45.14 146.199 44.8072 145.844 44.4744 145.488C44.4988 145.354 44.396 145.191 44.2688 145.162C43.3975 144.124 42.7267 142.715 42.4377 141.395C41.8891 139.318 41.9227 136.959 42.8226 134.941C43.5219 133.294 44.8573 131.794 46.5551 131.214C48.1257 130.605 49.853 130.589 51.4093 131.507C52.8628 132.263 54.0913 133.523 54.7376 135.065C55.5651 137.067 55.5315 139.426 53.8388 140.703C52.2733 142.01 50.1449 142.768 48.0848 142.429C46.2791 142.148 44.4144 140.741 44.2231 138.886C44.0073 137.165 45.0344 135.177 46.9917 135.353C47.9068 135.427 48.5724 136.138 48.6803 136.999C48.8126 137.725 48.3871 138.601 47.5749 138.691C46.8899 138.81 46.1754 138.365 46.043 137.639C45.9891 137.208 45.3285 137.194 45.3825 137.624C45.7254 139.375 48.0156 139.907 48.9449 138.452C49.346 137.71 49.3898 136.746 49.003 135.96C48.5134 135.011 47.6472 134.67 46.7322 134.597C44.6232 134.524 43.3416 136.454 43.5085 138.442C43.6266 140.697 45.3152 142.342 47.3509 142.815C49.6166 143.481 51.9995 142.782 53.8194 141.534C54.7294 140.91 55.5366 140.123 55.7565 138.921C56.0791 137.883 56.0445 136.622 55.7311 135.435C54.5606 131.683 50.5279 129.075 46.8778 130.176C44.9011 130.83 43.3112 132.27 42.4602 134.022C41.4087 136.144 41.199 138.74 41.8504 140.98C41.9043 141.41 42.1099 141.736 42.1639 142.167C41.6743 141.217 41.1847 140.268 40.8468 139.215C40.7929 138.785 40.6117 138.325 40.5578 137.895C40.797 135.863 41.0362 133.83 41.2755 131.797C41.9798 130.847 43.2176 129.882 44.5337 129.213ZM50.0811 123.541C48.6816 123.216 47.4825 122.52 46.5085 121.319C47.1396 120.77 47.7462 120.354 48.5046 119.834C48.759 119.893 49.0135 119.952 49.1407 119.982C49.3952 120.041 49.7524 120.263 50.0069 120.322C50.6186 120.604 51.0787 120.989 51.6904 121.27C52.7622 121.937 53.8584 122.47 55.0524 122.469C55.5857 122.454 56.1191 122.439 56.5497 122.26C54.4752 123.449 52.2441 124.044 50.0811 123.541ZM58.9518 120.73C58.849 120.567 58.7218 120.538 58.5701 120.642C57.3813 121.34 55.9379 121.979 54.5139 121.787C53.2172 121.625 51.9154 120.766 50.8436 120.099C50.3591 119.847 49.7474 119.566 49.2629 119.314C50.6034 118.512 51.9439 117.71 53.3628 117.204C55.5502 117.573 57.7182 118.773 59.2796 120.389L59.4068 120.418C59.2307 120.656 59.0791 120.76 58.9518 120.73ZM59.6857 120.344C59.7102 120.211 59.7102 120.211 59.6073 120.047C58.1488 118.595 56.3625 117.483 54.3512 116.877C55.7701 116.371 57.0373 115.97 58.5346 115.761C60.0858 115.982 61.5149 116.871 62.4889 118.072C61.5545 118.829 60.6201 119.587 59.6857 120.344ZM65.341 115.533C64.5339 116.32 63.7511 116.973 62.9684 117.626C62.1999 116.752 61.1525 115.952 60.1591 115.581C61.7836 115.402 63.6382 115.415 65.341 115.533ZM60.1683 113.356C61.4406 113.652 62.7913 114.244 64.0392 114.673C62.4636 114.586 60.8391 114.765 59.2146 114.944C59.5667 114.469 59.7673 114.098 60.1195 113.623C60.2467 113.653 60.2711 113.519 60.1683 113.356ZM55.0057 112.574C56.6058 112.528 58.1326 112.883 59.6594 113.238C59.2828 113.846 58.7789 114.425 58.3779 115.167C56.6017 115.451 54.9039 116.031 53.2061 116.611C53.4749 115.142 54.1253 113.761 55.0057 112.574ZM50.4895 113.334C51.6295 112.903 52.9995 112.665 54.1935 112.664C53.313 113.851 52.7654 115.395 52.4967 116.863C51.0533 117.503 49.7372 118.171 48.5239 119.003C48.5483 118.869 48.5728 118.736 48.5728 118.736C48.6461 118.335 48.7193 117.935 48.7926 117.534C49.0614 116.065 49.609 114.522 50.4895 113.334ZM46.3946 116.141C47.2506 115.087 48.3367 114.226 49.5011 113.661C49.0757 114.537 48.6502 115.413 48.3519 116.318C48.1025 116.956 47.9804 117.624 47.961 118.455C47.9122 118.722 47.8389 119.122 47.9173 119.419C47.6139 119.627 47.3106 119.835 47.0073 120.043C46.7039 120.251 46.5523 120.355 46.3762 120.592C46.3762 120.592 46.4006 120.459 46.2734 120.429C45.1721 119.199 45.3869 117.299 46.3946 116.141ZM50.4927 106.792C50.2138 106.866 49.9593 106.807 49.7049 106.748C49.1959 106.63 48.687 106.511 48.3786 106.022C48.0458 105.666 47.8646 105.206 47.9623 104.672C48.3196 104.894 48.7796 105.28 49.1369 105.502C49.3669 105.695 49.597 105.887 49.9542 106.11C50.1842 106.302 50.4387 106.362 50.5415 106.525C50.7471 106.851 50.6199 106.821 50.4927 106.792ZM61.091 86.5622C64.4631 89.1557 66.6321 93.9755 65.4686 98.1601C64.7744 100.505 62.7539 102.123 60.6011 103.015C58.4483 103.907 56.1632 104.072 53.7947 103.243C52.5468 102.814 51.475 102.147 50.4032 101.481C49.4586 100.843 48.4113 100.043 47.6428 99.1684C46.1059 97.4191 45.1217 94.8236 46.1731 92.7013C47.073 90.6829 49.1962 89.2273 51.2757 88.7361C53.3552 88.2448 55.567 88.4804 57.3045 89.8587C58.8119 91.0444 59.8939 93.1056 59.6546 95.1383C59.4154 97.171 57.7522 99.012 55.8488 99.2657C53.9209 99.653 51.6013 98.557 50.6221 96.6588C50.3382 96.036 50.3086 95.4722 50.6608 94.9972C51.1402 94.5517 51.698 94.403 52.2558 94.2541C53.347 94.0901 54.5949 94.5193 55.06 95.6019C55.344 96.2248 55.2463 96.759 54.6885 96.9078C54.1307 97.0566 53.3917 96.7456 52.9072 96.4938C52.55 96.2716 52.3006 96.9097 52.6578 97.1319C53.6268 97.6356 55.1047 98.2575 55.7307 97.0108C56.3079 96.0311 55.4855 94.7263 54.5409 94.0891C52.6518 92.8148 48.6984 94.1235 49.9371 96.7781C50.8674 98.9433 53.2899 100.202 55.4477 100.008C57.7328 99.8428 59.6261 98.1945 60.1686 95.9539C60.7112 93.7132 59.8053 91.4144 58.244 89.7986C56.4526 87.9901 54.0352 87.4283 51.7012 87.8604C49.3673 88.2926 46.9895 89.689 45.8108 91.7818C44.456 94.1121 45.0096 96.8859 46.6249 98.9319C47.4962 99.9697 48.5191 100.904 49.5665 101.704C50.7411 102.534 51.9401 103.23 53.2908 103.822C55.7622 104.814 58.429 104.738 60.7578 103.609C62.2012 102.969 63.5661 102.034 64.4466 100.846C63.6985 102.761 61.854 104.142 60.1074 104.989C58.2091 105.94 56.0023 106.402 53.9178 106.195C49.6214 105.754 45.3047 102.523 43.8259 98.2814C43.3851 97.0652 43.2233 95.7747 43.4676 94.4393C43.7119 93.1039 44.1863 91.9611 44.7878 90.848C45.8149 88.8591 47.3509 86.9886 49.2737 85.9041C52.9919 83.7054 57.7189 83.9686 61.091 86.5622ZM62.8167 61.9039C62.0054 65.6135 60.4307 69.1456 58.7532 72.5147C56.7235 76.3587 54.4882 79.8766 52.713 83.7798L52.6886 83.9134C52.2825 83.9582 51.8519 84.1366 51.4458 84.1814C54.1453 78.1263 56.4631 71.9824 58.2963 65.5868C59.0639 62.8416 59.8019 59.5326 58.1571 56.9229C57.4375 55.7811 56.2629 54.9513 55.0445 55.0858C53.6989 55.1907 52.4856 56.0225 51.5267 56.9134C49.3057 58.9032 47.7504 61.6045 46.2978 64.469C45.1813 61.1467 43.7859 57.8988 41.6321 55.1708C41.0937 54.4888 40.428 53.7772 39.7624 53.0656C39.0723 52.4876 38.2794 51.7464 37.4132 51.4059C35.808 50.7544 34.1886 51.6311 33.1565 52.9226C30.74 55.9807 31.1033 60.5201 32.4254 64.1686C33.1257 66.1412 34.1048 68.0394 35.084 69.9375C36.0631 71.8357 37.0667 73.6003 38.1975 75.3945C40.6403 79.4427 43.3864 83.2829 46.4359 86.9152C46.7687 87.271 47.1209 86.7959 46.7881 86.4402C44.2771 83.4899 41.9666 80.1686 39.7833 76.8768C37.7273 73.6147 35.7201 70.0854 34.1191 66.5113C32.4936 63.0707 31.2693 58.888 32.7412 55.1928C33.416 53.679 34.5214 51.9869 36.2487 51.9706C37.1882 51.9105 38.0056 52.5181 38.8229 53.1257C39.513 53.7037 40.0759 54.2522 40.6143 54.9342C43.2525 57.914 44.8047 61.7553 46.1024 65.5373C46.1808 65.8339 46.5869 65.7891 46.6357 65.522C47.8878 63.0286 49.1398 60.5352 51.1063 58.4863C52.0896 57.4619 53.0729 56.4374 54.3401 56.0358C55.6074 55.6342 56.8552 56.0635 57.7021 57.2348C59.3713 59.711 58.5061 62.9904 57.7874 65.4685C56.8194 68.5848 55.8758 71.5675 54.7805 74.6542C53.5091 77.9784 52.2377 81.3026 50.7363 84.4342C49.7236 84.8949 48.7108 85.3556 47.9036 86.1426C47.2725 86.692 46.7687 87.271 46.2648 87.85C46.2893 87.7164 46.162 87.6869 46.0348 87.6573C39.5888 81.565 32.8344 74.9835 29.7983 66.2032C29.0981 64.2307 28.5739 62.0205 28.4314 59.8991C28.289 57.7778 28.4498 55.4485 29.0952 53.371C29.8922 51.1895 31.4577 49.8827 33.4589 49.0948C35.3083 48.4108 37.2901 48.4537 39.1741 49.0308C41.3126 49.667 43.0012 51.3124 44.2348 53.2697C45.4685 55.227 46.1198 57.4667 47.2018 59.528C47.2802 59.8246 47.6863 59.7798 47.8624 59.5423C48.6004 56.2333 50.4051 52.8939 53.2134 51.319C55.8701 49.8482 59.5547 50.0084 61.6301 52.4397C63.5538 54.9751 63.3786 58.8325 62.8167 61.9039ZM62.6774 53.24C62.4718 52.9138 62.2418 52.7211 62.1634 52.4245C61.3166 51.2531 60.2448 50.5864 58.9969 50.1572C58.9969 50.1572 58.9969 50.1572 59.0213 50.0237C58.7913 49.831 58.7129 49.5343 58.6101 49.3712C58.6346 49.2376 58.5073 49.2081 58.5318 49.0746C58.5562 48.941 58.429 48.9114 58.3018 48.8819C57.3715 46.7166 56.8717 44.373 56.5237 41.9254C56.1756 39.4778 56.2337 36.9854 56.8007 34.6112C57.3188 32.5041 58.3703 30.3818 60.2686 29.4308C61.1542 28.9405 62.2209 28.91 63.0626 29.384C64.0316 29.8876 64.6729 30.7328 65.1624 31.6818C66.45 34.0693 66.7003 37.0511 66.9995 39.7658C67.0535 40.196 67.5868 40.1807 67.6601 39.7801C68.2515 37.2724 69.9636 35.1643 72.1897 33.8718C74.2397 32.8169 77.9437 32.1463 79.4857 34.5929C80.2053 35.7347 80.2155 37.1292 79.8439 38.435C79.5996 39.7705 78.9492 41.1507 78.0931 42.2047C76.4594 44.6094 74.1601 46.3025 71.7579 47.8325C68.7491 49.7784 65.5835 51.131 62.6774 53.24Z" fill="#B6B3A9"/>
<path d="M80.5617 67.0524C80.6536 65.83 79.8709 65.094 78.89 64.7262C76.8027 63.9614 74.5993 64.5515 72.8017 65.7895C73.1932 64.3607 73.6088 62.7994 73.0967 61.2974C72.5846 59.7954 71.4975 58.5736 69.9416 58.4859C68.2359 58.5014 66.7138 59.6656 65.8199 60.9768C64.8003 62.2585 64.2348 63.923 64.0463 65.6757C63.8095 67.6934 64.0751 69.8288 64.4906 71.861L64.4664 71.9936C64.4518 73.5105 64.4372 75.0274 64.4227 76.5443C64.4516 77.104 64.3308 77.7668 64.6352 78.2527C65.0652 78.7679 65.6644 78.3553 66.0896 78.1784C68.6167 77.2494 71.0424 76.1584 73.3908 74.7729C75.5894 73.4906 77.8121 72.0758 79.3536 70.0868C80.0253 69.2765 80.5955 68.3043 80.5617 67.0524ZM78.7496 69.8073C77.3821 71.5605 75.5846 72.7984 73.6856 73.8744C71.6368 75.0535 69.6122 76.1002 67.4861 76.9848C66.9111 77.2649 66.2104 77.5155 65.6596 77.6631C65.534 77.6337 65.2344 77.84 65.1087 77.8106C64.9831 77.7812 65.0314 77.5161 65.0314 77.5161C64.9783 77.089 65.0267 76.8239 64.9735 76.3968C64.9398 75.145 64.9302 73.7606 65.022 72.5382C65.1718 72.435 65.196 72.3025 65.0945 72.1405C64.2443 68.9009 63.9932 65.2486 65.5782 62.3024C66.3466 60.9618 67.342 59.8126 68.7433 59.3112C69.4439 59.0606 70.246 58.9718 70.9514 59.4133C71.5554 59.6928 71.9613 60.3407 72.2415 60.9591C72.9565 62.785 72.3186 64.8471 71.7532 66.5116C71.6807 66.9092 72.0334 67.13 72.2073 66.8943C73.6522 65.4356 75.7299 64.8161 77.7641 65.1539C78.7933 65.2565 79.75 65.7568 79.808 66.8761C79.9915 68.0247 79.4213 68.997 78.7496 69.8073Z" fill="#B6B3A9"/>
<path d="M62.6978 11.0189C62.2437 10.6362 61.7461 11.2108 61.4224 11.5496C61.0986 11.8884 60.9247 12.1241 60.7266 12.4923C60.9876 10.3423 60.8718 8.10414 59.4805 6.39664C58.8476 5.55759 57.9152 4.92481 56.8861 4.82221C55.9827 4.749 55.0068 5.07341 54.2579 5.58915C52.4123 7.09198 51.9773 9.47771 52.2188 11.7453C51.0545 10.2291 50.04 8.60979 48.3781 7.66813C46.5664 6.82962 44.6629 7.21338 43.5709 8.89257C42.479 10.5718 42.3678 12.6186 42.9329 14.5474C43.5754 16.7706 44.7686 18.8464 46.0101 20.657C47.2275 22.6002 48.8942 24.2339 50.6093 25.6026C50.6093 25.6026 50.6092 25.6026 50.4595 25.7057C50.1358 26.0446 49.9377 26.4128 49.7396 26.781C49.5656 27.0167 49.4931 27.4143 49.4448 27.6794C49.4206 27.8119 49.5221 27.9739 49.6235 28.1358C49.725 28.2977 49.9762 28.3565 50.2516 28.2828C50.4014 28.1796 50.5511 28.0765 50.7009 27.9733C50.8507 27.8702 50.8749 27.7376 51.0488 27.5019C51.1986 27.3988 51.2469 27.1337 51.2711 27.0012C52.0537 27.7371 52.9861 28.3698 53.7687 29.1058C53.8702 29.2677 54.1456 29.1939 54.3195 28.9582C55.5564 26.4838 56.6919 23.8475 57.8032 21.3436C58.7406 19.0755 59.678 16.8073 60.2385 14.451C60.3642 14.4804 60.3642 14.4805 60.5139 14.3773C61.287 13.729 62.06 13.0807 62.606 12.2411C62.9297 11.9023 63.0263 11.3722 62.6978 11.0189ZM50.8942 26.913C50.8942 26.913 50.7686 26.8836 50.8942 26.913C50.8701 27.0455 50.8701 27.0455 50.8701 27.0455C50.8459 27.1781 50.7203 27.1487 50.6961 27.2812L50.5464 27.3844C50.5464 27.3844 50.5222 27.5169 50.3966 27.4875C50.3966 27.4875 50.3966 27.4875 50.3724 27.6201C50.3724 27.6201 50.3724 27.6201 50.3966 27.4875C50.4207 27.355 50.4449 27.2225 50.5947 27.1193C50.6188 26.9868 50.7686 26.8836 50.9426 26.6479C50.9667 26.5154 51.0923 26.5448 51.1165 26.4122C51.1165 26.4122 51.2421 26.4416 51.2179 26.5742C50.9425 26.6479 50.9184 26.7805 50.8942 26.913ZM59.9584 13.8327C59.3737 16.3216 58.4121 18.7222 57.4747 20.9904C56.3634 23.4942 55.2762 25.8655 54.1649 28.3693C53.3823 27.6334 52.5755 27.03 51.7929 26.2941C51.7929 26.2941 51.7929 26.2941 51.817 26.1616C51.8412 26.0291 51.7397 25.8671 51.6141 25.8377C51.6383 25.7052 51.6866 25.4401 51.4354 25.3813C49.7977 24.3071 48.3822 22.7322 47.2179 21.216C46.0778 19.5673 44.9619 17.786 44.1213 15.931C43.4064 14.1054 42.991 12.0735 43.7061 10.3061C44.3971 8.67131 46.0205 7.66922 47.7549 8.21326C49.9675 9.00741 51.238 11.3776 52.6052 13.2177C52.8323 13.409 53.2333 13.3646 53.156 13.0701C52.7889 10.7732 52.7214 8.26988 54.34 6.57572C54.9874 5.89806 55.8619 5.4117 56.8909 5.5143C57.92 5.61691 58.7268 6.22029 59.3596 7.05934C60.7026 9.03191 60.3692 11.5795 59.9584 13.8327ZM61.4561 12.8012C61.4561 12.8012 61.432 12.9338 61.3063 12.9044C61.5044 12.5362 61.6784 12.3005 61.8523 12.0648C61.8765 11.9322 62.0263 11.8291 62.1519 11.8585C62.1519 11.8585 62.1519 11.8585 62.3017 11.7554C62.2775 11.8879 62.1035 12.1236 61.9538 12.2267C61.804 12.3299 61.6301 12.5656 61.4561 12.8012Z" fill="#B6B3A9"/>
<path d="M58.7956 10.9347C58.6651 10.2124 58.5587 9.35748 57.8768 8.7829C56.4115 7.47162 55.0476 9.91931 54.4769 10.8925C53.9062 11.8657 53.6111 12.765 53.2919 13.7971C53.2194 14.1951 53.1226 14.7258 52.6728 15.0356C52.5229 15.1389 52.373 15.2421 52.1215 15.1833C51.9958 15.1539 51.7685 14.9623 51.7927 14.8296C51.841 14.5643 51.7395 14.4022 51.6137 14.3728C51.1012 12.8694 50.1872 11.4104 48.7751 10.5266C48.1947 10.1142 47.4645 9.80494 46.739 10.1886C46.1635 10.4689 45.8153 10.9408 45.7186 11.4715C45.3268 12.9016 45.8152 14.5376 46.3761 15.7756C47.1402 17.3378 48.3298 18.7229 49.3695 20.2113C50.7381 22.0533 52.1066 23.8953 53.4752 25.7373C53.5768 25.8994 53.954 25.9877 54.0023 25.7223C54.8923 23.7171 55.6323 21.8151 56.3965 19.7805C57.1365 17.8785 57.8765 15.9766 58.2393 13.9863C58.8342 12.8805 59.0035 11.9517 58.7956 10.9347ZM56.4642 18.6896C55.6759 20.857 54.7859 22.8622 53.896 24.8674C51.9955 22.3475 49.9934 19.6656 48.1171 17.0131C47.2805 15.8489 46.5938 14.5815 46.3327 13.137C46.149 11.9873 46.6133 10.1591 48.0738 10.7776C48.8041 11.0868 49.4617 11.7941 49.8921 12.3098C50.4241 12.9876 50.8061 13.7687 51.0624 14.5204C51.0382 14.6531 51.164 14.6825 51.2897 14.712C51.193 15.2427 51.6475 15.6257 52.1263 15.8761C52.8807 16.0527 53.3789 15.4775 53.6256 14.8435C53.9206 13.9442 54.1915 13.1775 54.4865 12.2782C54.9073 11.4082 55.3281 10.5383 55.8504 9.83048C56.1744 9.49128 56.3969 8.98996 56.9241 8.97497C57.3255 8.93055 57.6543 9.28417 57.8332 9.74107C58.1911 10.6549 58.2491 11.7752 58.0798 12.7039C57.9685 14.753 57.2043 16.7877 56.4642 18.6896Z" fill="#B6B3A9"/>
</svg>
