<svg width="375" height="46" viewBox="0 0 375 46" fill="none" xmlns="http://www.w3.org/2000/svg">
<path d="M374.547 18.7625C374.024 18.0641 373.501 17.3657 372.803 16.8419C372.105 16.3181 371.407 16.1435 370.535 15.9689C369.139 15.7943 367.743 16.3182 366.697 17.3658V17.1912C366.348 16.4928 365.475 16.6674 364.952 17.0166C364.428 17.3657 363.905 18.0641 363.731 18.5879C363.556 19.2863 363.382 19.9847 363.207 20.6831C351.867 23.6513 340.003 24.1751 328.489 22.2545C327.442 22.0799 326.395 21.9053 325.348 21.5561C330.059 20.3339 334.595 18.7625 339.131 16.6673C340.178 16.1435 341.05 15.7944 342.097 15.2706C342.271 15.4452 342.446 15.6197 342.62 15.7943C342.969 15.9689 343.318 16.1436 343.842 16.3182C344.714 16.6674 345.586 17.0166 346.459 17.0166C347.331 17.1912 348.203 17.0166 348.727 16.3182C348.901 15.969 349.076 15.4452 348.727 15.096C349.773 15.2706 350.82 15.2705 351.867 14.9213C353.263 14.3975 354.833 13.5246 355.356 11.9532C355.88 10.3818 355.007 8.63581 353.786 7.58822C352.565 6.54062 350.82 6.19141 349.25 6.54061C348.378 6.71521 347.505 7.23903 346.808 7.76283C346.11 8.28662 345.761 9.15959 345.237 9.85798C345.063 9.68338 344.888 9.68341 344.888 9.50882C344.191 9.33422 343.667 9.50879 343.144 10.0326C342.62 10.5564 342.446 11.0802 342.097 11.7786C341.748 12.477 341.574 13.35 341.574 14.223C341.574 14.3976 341.574 14.3976 341.748 14.5722C335.991 17.5404 329.884 19.8101 323.429 21.2069C319.417 20.1593 315.578 18.9371 311.74 17.5403C306.506 15.6197 301.272 13.5246 295.864 11.9532C291.502 10.731 287.14 10.0326 282.604 10.2072C283.477 9.50881 284 8.46121 284.698 7.58822C284.872 7.41362 284.872 7.23899 285.047 7.06439C286.617 8.63578 288.885 8.11198 290.455 7.06439C292.723 5.66759 294.991 3.92164 297.085 2.35025C297.259 2.17565 297.259 1.82646 297.085 1.65186C294.817 0.429667 291.851 -0.617948 289.234 0.429646C286.792 1.47724 285.57 3.74701 284.698 6.19139C284.523 6.36599 284.523 6.36601 284.349 6.54061C283.477 7.58821 282.953 8.81038 281.907 9.68337C281.732 9.85797 281.732 10.2072 281.907 10.2072C281.209 10.2072 280.511 10.3818 279.987 10.3818C275.451 10.9056 271.264 12.477 267.077 14.3976C264.111 13.6992 260.971 13.1754 258.005 12.6516C259.749 12.3024 261.32 11.604 262.89 10.731C264.809 12.1278 267.251 11.604 268.996 10.2072C271.09 8.63581 272.311 6.0168 273.532 3.74702C273.707 3.39782 273.532 3.04863 273.183 3.04863C270.741 2.87403 268.298 3.39782 266.205 4.62001C265.332 5.14381 264.46 5.84224 263.937 6.88983C263.413 7.93743 263.239 8.98498 262.366 9.68337L262.192 9.85798C260.098 11.0802 257.83 11.9532 255.213 11.7786C255.039 11.7786 254.864 11.9532 254.864 11.9532C245.094 10.731 235.15 10.731 225.38 12.1278H225.205C226.078 11.2548 226.95 10.3818 227.822 9.50882C228.695 9.85801 229.741 10.0326 230.788 10.0326C232.882 9.85799 234.975 9.15958 236.72 7.93738C237.767 7.23899 238.465 6.366 239.163 5.49301C239.86 4.62001 240.558 3.22322 240.384 2.00103C240.384 1.82643 240.035 1.65186 239.86 1.65186H239.686C236.895 2.17566 234.103 1.47726 231.486 2.52486C229.567 3.39785 226.776 4.62 226.427 7.06439C226.252 7.93738 226.601 8.46119 226.95 8.98499C225.903 10.0326 225.031 11.2548 223.81 11.9532C223.635 11.9532 223.635 12.1278 223.635 12.3024C217.878 13.1754 212.121 14.3976 206.363 15.9689C203.921 15.096 201.304 14.0484 198.861 13.35C197.465 13.0008 196.07 12.477 194.848 12.1278H194.674C193.278 11.604 191.708 11.7786 190.138 11.7786C188.219 11.9532 186.125 11.9532 184.206 11.9532C183.334 11.9532 182.461 11.9532 181.589 11.9532C181.764 11.4294 182.113 11.0802 182.287 10.5564C182.461 10.5564 182.636 10.3818 182.636 10.2072C184.381 9.858 186.3 9.68338 188.044 8.98499C189.44 8.46119 190.836 7.23901 191.359 5.66762C191.534 5.31842 191.534 4.96921 191.534 4.62001C191.534 4.44541 191.534 4.27083 191.534 4.09624C191.359 3.92164 191.185 3.74702 191.01 3.74702C190.836 3.74702 190.661 3.74702 190.312 3.74702C190.138 3.74702 189.789 3.74702 189.615 3.74702C189.091 3.74702 188.742 3.92163 188.219 3.92163C186.474 4.27082 184.729 4.62002 183.159 5.66762C182.287 6.19141 181.589 6.88979 181.24 7.93738C181.066 8.63578 181.24 9.50881 181.589 10.2072C181.24 10.731 180.891 11.4294 180.542 12.1278C180.368 12.1278 180.368 12.1278 180.193 12.3024C178.798 12.6516 177.402 13.0008 176.181 13.5246C173.738 14.3976 171.121 15.2706 168.679 16.1436C162.921 14.7468 157.164 13.5246 151.407 12.477C151.407 12.3024 151.407 12.3024 151.232 12.1278C150.011 11.2548 149.139 10.2072 148.092 9.1596C148.441 8.6358 148.79 8.11199 148.615 7.239C148.441 4.96921 145.475 3.57241 143.556 2.69941C140.939 1.65182 138.147 2.35021 135.356 1.82642H135.181C135.007 1.82642 134.658 2.00104 134.658 2.17564C134.484 3.39783 135.181 4.62002 135.879 5.66762C136.577 6.71521 137.449 7.4136 138.322 8.11199C140.066 9.33418 142.16 10.0326 144.254 10.2072C145.3 10.2072 146.347 10.2072 147.22 9.68337C148.092 10.5564 148.79 11.4294 149.836 12.3024H149.662C139.892 10.9056 130.122 10.9056 120.177 12.1278C120.177 11.9532 120.003 11.9532 119.829 11.9532C117.386 11.9532 114.943 11.2548 112.85 10.0326C112.85 10.0326 112.85 9.85798 112.675 9.85798C111.803 9.15959 111.629 7.93738 111.105 7.06439C110.582 6.01679 109.884 5.31842 108.837 4.79462C106.744 3.57243 104.301 3.04864 101.859 3.22324C101.51 3.22324 101.335 3.57243 101.51 3.92163C102.731 6.19141 103.952 8.81042 106.046 10.3818C107.79 11.7786 110.233 12.3024 112.152 10.9056C113.722 11.7786 115.292 12.477 117.037 12.8262C113.897 13.35 110.931 13.8738 107.965 14.5722C103.778 12.6516 99.5906 11.0802 95.0545 10.5564C94.3566 10.5564 93.6587 10.3818 93.1353 10.3818C93.3098 10.2072 93.3098 10.0326 93.1353 9.85798C92.0886 9.15959 91.5652 7.76282 90.6928 6.71522C90.5184 6.54062 90.5184 6.5406 90.3439 6.366C89.4716 4.09621 88.0759 1.65185 85.8078 0.604256C83.1908 -0.443339 80.3994 0.604224 77.9569 1.82642C77.7824 2.00102 77.608 2.35026 77.9569 2.52486C80.2249 4.09625 82.3185 5.8422 84.5866 7.239C86.3312 8.28659 88.5993 8.63579 89.995 7.239C90.1694 7.4136 90.1694 7.58823 90.3439 7.76283C91.0418 8.63582 91.5652 9.68341 92.4375 10.3818C87.9014 10.2072 83.5398 10.9056 79.1781 12.1278C73.7697 13.5246 68.5358 15.7943 63.3018 17.7149C59.4636 19.1117 55.6254 20.3339 51.6127 21.3815C45.3319 19.9847 39.2257 17.5404 33.2938 14.7468C33.4683 14.7468 33.4683 14.5722 33.4683 14.3976C33.4683 13.5246 33.2938 12.8262 32.9449 11.9532C32.7704 11.2548 32.4215 10.731 31.8981 10.2072C31.3747 9.6834 30.8513 9.50877 30.1535 9.68337C29.979 9.68337 29.8045 9.85799 29.8045 10.0326C29.4556 9.3342 28.9322 8.63578 28.2344 7.93738C27.5365 7.23899 26.6642 6.88982 25.7918 6.71522C24.2217 6.36602 22.477 6.71523 21.2558 7.76283C20.0345 8.81042 18.9877 10.5564 19.6856 12.1278C20.209 13.6992 21.7791 14.5722 23.1749 15.096C24.2217 15.4452 25.2684 15.4452 26.3152 15.2706C26.1408 15.6198 26.1408 16.1436 26.3152 16.4928C26.8386 17.1912 27.711 17.3658 28.5833 17.1912C29.4556 17.0166 30.3279 16.842 31.2003 16.4928C31.5492 16.3182 32.0726 16.1435 32.4215 15.9689C32.596 15.7943 32.7704 15.6198 32.9449 15.4452C33.9917 15.969 34.864 16.4927 35.9108 16.8419C40.2724 18.9371 44.983 20.5086 49.6936 21.7307C48.6468 21.9053 47.6 22.0799 46.5532 22.4291C35.0385 24.5243 23.1749 24.0005 11.8346 20.8578C11.6602 20.1594 11.6602 19.4609 11.3112 18.7625C11.1368 18.0641 10.6134 17.5404 10.09 17.1912C9.56659 16.842 8.69427 16.842 8.34534 17.3658V17.5403C7.29855 16.4927 5.90282 15.969 4.5071 16.1436C3.63478 16.1436 2.93692 16.4928 2.23906 17.0166C1.5412 17.5403 0.84334 18.0642 0.49441 18.9372C-0.377915 20.5085 -0.0289868 22.4291 1.0178 23.6513C2.76245 25.5719 5.90282 25.7465 7.99641 24.1751C7.82194 24.5243 7.82194 24.6989 7.99641 25.0481C8.34534 25.9211 9.39213 25.3973 9.91552 24.8735C10.4389 24.3497 10.9623 23.8259 11.3112 23.1275C11.4857 22.7783 11.6602 22.4291 11.8346 22.0799C11.8346 21.9053 12.0091 21.9053 12.0091 21.7307C13.2304 22.0799 14.4516 22.4291 15.6729 22.6037C27.0131 25.0481 38.8767 25.0481 50.2169 22.4291C50.7403 22.2545 51.0893 22.2545 51.6127 22.0799C55.4509 22.9529 59.2891 23.4767 63.1274 23.6513C67.8379 24.0005 72.7229 23.6513 77.4335 22.7783C82.493 21.9053 87.378 20.5086 92.263 19.1118C97.497 17.715 102.731 16.3182 107.965 15.2706C110.233 16.3182 112.501 17.3657 114.595 18.4133C115.467 18.7625 116.339 19.2863 117.386 19.6355C116.514 19.6355 115.641 19.8102 114.769 19.9848C114.769 19.9848 114.769 19.8101 114.595 19.8101C112.327 18.4134 110.233 19.9847 108.139 21.0323C106.918 21.7307 105.697 22.4291 104.476 23.1275C103.778 23.4767 103.254 24.1751 104.127 24.6989C105.173 25.2227 106.395 25.3973 107.616 25.3973C108.837 25.3973 109.884 25.3973 111.105 24.8735C112.85 24.1751 114.42 22.7783 114.943 20.8578C116.514 20.5086 118.084 20.5085 119.48 20.6831C122.969 22.0799 126.633 23.3021 130.471 24.0005C131.692 24.1751 133.088 24.3497 134.309 24.5243C133.611 24.6989 133.088 25.0481 132.39 25.2227C132.39 25.2227 132.216 25.2227 132.216 25.0481C129.773 24.3497 127.505 25.5719 126.109 27.4925C124.539 29.5877 124.19 32.3813 122.445 34.4765C122.271 34.6511 122.271 35.1748 122.62 35.1748C125.062 35.8732 127.679 35.0002 129.599 33.4289C131.692 31.5083 132.564 28.8893 132.564 26.0957C132.564 26.0957 132.564 26.0957 132.564 25.9211C133.611 25.2227 134.833 24.8735 136.228 24.6989C136.403 24.6989 136.577 24.5243 136.577 24.3497C140.066 24.5243 143.73 24.3497 147.22 23.6513C147.568 23.6513 147.917 23.4767 148.266 23.4767C147.22 24.5243 146.347 25.5719 145.475 26.7941C145.475 26.7941 145.3 26.7941 145.3 26.6195C145.126 26.6195 145.126 26.6195 144.951 26.6195C140.939 25.7465 138.845 30.6353 138.147 33.7781C137.275 37.4446 137.101 41.635 134.833 44.9524C134.658 45.3016 134.832 45.6508 135.181 45.6508C139.718 44.9524 143.207 41.4604 145.475 37.6192C146.696 35.6986 147.917 33.4289 148.092 30.9845C148.092 29.5877 147.568 28.0163 146.347 27.1433C147.394 25.7465 148.441 24.3497 150.011 23.3021L150.185 23.1275C156.466 21.7307 162.398 19.2863 168.504 17.0166C173.215 18.2387 177.925 19.461 182.636 20.8578C182.81 20.8578 182.985 20.8578 182.985 20.8578C183.683 21.0324 184.555 21.2069 185.427 21.2069L185.602 21.3815C187.172 21.5561 188.568 22.4291 189.615 23.6513C189.789 23.8259 189.789 24.0005 189.963 24.1751C189.963 24.0005 189.789 24.0005 189.615 24.0005C188.742 24.1751 188.219 24.8735 187.87 25.7465C187.521 26.6195 187.695 27.6671 187.695 28.7147C188.044 30.8099 188.568 32.7305 188.917 34.8257C188.917 35.1749 189.091 35.8732 189.44 36.0478C189.963 36.2224 190.487 35.8733 190.836 35.6987C191.185 35.5241 191.534 35.1749 191.708 34.8257C192.057 34.4765 192.406 34.1273 192.58 33.7781C193.104 33.0797 193.627 32.2067 193.976 31.3337C194.151 30.4607 194.151 29.5877 193.976 28.7147C193.627 27.1433 192.406 25.9211 191.01 25.2227C190.487 23.8259 189.615 22.6037 188.219 21.7307C188.044 21.7307 187.87 21.5561 187.87 21.5561C188.742 21.5561 189.44 21.5561 190.312 21.3815C191.01 21.3815 191.708 21.2069 192.58 21.0323C192.755 21.0323 192.755 20.8578 192.755 20.8578C197.117 19.6356 201.478 18.4134 205.665 17.3658C211.772 19.6356 217.703 22.0799 223.984 23.4767C223.984 23.4767 223.984 23.6513 224.159 23.6513C225.729 24.6989 226.776 26.0957 227.822 27.4925C226.601 28.3655 226.078 29.7623 226.078 31.3337C226.078 33.6035 227.473 36.0478 228.695 37.9684C230.963 41.8096 234.452 45.3016 238.988 46C239.337 46 239.686 45.6508 239.337 45.3016C237.069 42.1588 236.895 37.9684 236.022 34.1272C235.324 31.1591 233.056 26.2703 229.218 26.9687C229.218 26.9687 229.044 26.9687 228.869 26.9687C228.869 26.9687 228.695 26.9687 228.695 27.1433C227.997 25.9211 226.95 24.8735 225.903 23.8259C226.252 23.8259 226.601 24.0005 226.95 24.0005C230.439 24.5243 233.929 24.8735 237.592 24.6989C237.592 24.8735 237.767 24.8735 237.941 25.0481C239.337 25.2227 240.558 25.5719 241.605 26.2703C241.605 26.2703 241.605 26.2703 241.605 26.4449C241.78 29.0639 242.652 31.8575 244.571 33.7781C246.49 35.5241 249.107 36.2225 251.55 35.5241C251.899 35.5241 251.899 35.0003 251.724 34.8257C249.979 32.9051 249.456 30.1115 248.06 27.8417C246.665 25.7465 244.397 24.5243 241.954 25.3973C241.954 25.3973 241.78 25.3973 241.78 25.5719C241.256 25.2227 240.558 25.0481 239.86 24.8735C241.082 24.6989 242.477 24.5243 243.699 24.3497C247.537 23.6513 251.201 22.6037 254.69 21.0323C256.26 20.8577 257.83 20.8577 259.226 21.2069C259.749 23.1275 261.32 24.5243 263.064 25.2227C264.111 25.5719 265.332 25.7465 266.554 25.7465C267.6 25.7465 268.996 25.5719 270.043 25.0481C270.915 24.5243 270.392 23.8259 269.694 23.4767C268.473 22.7783 267.251 22.0799 266.03 21.3815C264.111 20.1593 261.843 18.5879 259.575 20.1593C259.401 20.1593 259.401 20.3339 259.401 20.3339C258.528 20.1593 257.656 19.9848 256.784 19.9848C257.656 19.6356 258.528 19.1117 259.575 18.7625C261.843 17.7149 263.937 16.6674 266.205 15.6198C271.439 16.6674 276.673 18.0641 281.907 19.4609C286.792 20.8577 291.677 22.2545 296.736 23.1275C301.447 24.0005 306.157 24.1751 311.042 24.0005C314.88 23.8259 318.719 23.3021 322.557 22.4291C323.08 22.6037 323.429 22.6037 323.953 22.7783C335.293 25.2227 347.156 25.3973 358.497 22.9529C359.718 22.6037 360.939 22.4291 362.16 22.0799C362.16 22.2545 362.16 22.2545 362.335 22.4291C362.509 22.7783 362.684 23.1275 362.858 23.4767C363.207 24.1751 363.731 24.6989 364.254 25.2227C364.777 25.5719 365.824 26.2703 366.173 25.3973C366.348 25.0481 366.173 24.8735 366.173 24.5243C368.267 25.9211 371.407 25.9211 373.152 24.0005C375.071 22.0799 375.42 20.1593 374.547 18.7625ZM345.412 11.2548C345.412 11.0802 345.412 10.9056 345.412 10.5564C345.412 10.5564 345.586 10.5564 345.586 10.3818C345.935 9.68341 346.284 8.98501 346.982 8.46121C347.505 7.93741 348.029 7.58819 348.727 7.239C350.122 6.7152 351.518 6.88982 352.739 7.58822C353.961 8.28661 355.007 9.6834 354.833 11.0802C354.658 12.477 353.263 13.35 352.216 13.8738C351.344 14.223 350.297 14.3976 349.25 14.3976H349.076C348.552 14.3976 348.029 14.2229 347.505 14.0483C348.029 13.8737 348.552 13.5246 348.727 13.0008C348.901 12.6516 348.901 12.3024 348.727 11.9532C348.552 11.604 348.203 11.604 348.029 11.4294C347.331 11.2548 346.633 11.2548 346.11 11.4294C345.935 11.4294 345.586 11.604 345.412 11.604C345.412 11.604 345.412 11.4294 345.412 11.2548ZM342.271 14.0483C342.271 13.0008 342.62 11.7786 343.318 10.731C343.493 10.3818 343.842 10.0326 344.365 10.0326C344.539 10.0326 344.714 10.0326 344.888 10.2072C345.063 10.3818 344.888 10.731 344.888 10.9056C344.714 11.604 344.539 12.1278 344.191 12.6516C344.016 13.0008 344.365 13.35 344.714 13.1754C345.412 12.477 346.459 12.1278 347.505 12.1278C347.854 12.1278 348.378 12.3024 348.203 12.6516C348.029 12.8262 347.854 13.0008 347.68 13.1754C347.331 13.35 347.156 13.5246 346.808 13.5246C346.11 13.8738 345.586 14.0484 344.888 14.223C344.365 14.3976 344.539 15.0959 345.063 14.9213C345.761 14.7467 346.459 14.7467 347.156 14.9213C347.505 14.9213 347.68 15.096 348.029 15.2706C348.203 15.4452 348.203 15.6197 348.203 15.9689C347.854 16.4927 347.156 16.4928 346.633 16.3182C345.935 16.1436 345.237 15.9689 344.539 15.7943C344.191 15.6197 343.842 15.4452 343.493 15.2706C343.318 15.096 342.969 15.096 342.795 14.7468C342.795 14.5722 342.62 14.5722 342.446 14.5722C342.446 14.5722 342.446 14.5722 342.271 14.5722C342.271 14.3976 342.271 14.2229 342.271 14.0483ZM293.77 2.00103C291.328 2.00103 289.06 2.87405 286.966 4.27085C286.792 4.44544 286.617 4.62002 286.268 4.79462C286.966 3.39783 288.013 2.17565 289.409 1.47725C291.502 0.429657 293.945 1.30265 296.038 2.35025C294.294 3.57244 292.549 4.79464 290.804 6.01684C289.409 6.88983 287.489 7.93738 285.919 7.06439C286.094 7.06439 286.268 6.88982 286.268 6.71522C286.268 6.54062 286.094 6.366 285.919 6.366C286.268 6.0168 286.617 5.84221 286.966 5.49301C288.885 4.09621 291.153 3.22324 293.596 3.22324C294.294 2.87404 294.294 2.00103 293.77 2.00103ZM268.298 6.54061C268.647 6.19141 268.124 5.49303 267.775 5.84223C266.728 6.88982 265.507 7.93739 264.286 8.98499C264.286 8.81039 264.46 8.63581 264.46 8.46121C264.809 7.41362 265.507 6.54062 266.554 5.84223C268.298 4.62003 270.566 4.09625 272.66 4.27085C271.788 6.01684 270.741 7.93741 269.345 9.33421C267.949 10.731 265.681 11.604 263.762 10.5564C265.332 9.33417 266.903 7.9374 268.298 6.54061ZM238.639 5.49301C238.116 6.1914 237.418 6.88981 236.895 7.41361C235.499 8.4612 233.754 9.33422 232.01 9.50882C231.137 9.68341 229.567 9.6834 228.695 9.33421C228.869 9.15961 229.044 8.98502 229.218 8.63582C230.788 7.06443 232.707 5.84223 234.801 4.96923C234.801 4.96923 234.801 4.96923 234.975 4.96923C236.546 4.27083 238.29 3.74703 239.86 3.04863C239.686 4.09623 239.163 4.96921 238.639 5.49301ZM227.648 7.41361C227.822 6.36601 228.869 5.66764 229.567 5.14384C230.439 4.62004 231.486 3.92161 232.533 3.57241C233.929 3.04861 235.499 3.04863 237.069 3.04863C236.371 3.39783 235.499 3.57243 234.801 3.92163C232.533 4.62002 230.614 5.84222 228.869 7.41361C228.52 7.7628 227.997 8.28662 227.648 8.63582C227.648 8.63582 227.648 8.112 227.648 7.41361ZM182.461 8.63582C182.636 7.93742 183.159 7.41363 183.857 6.88983C185.253 6.01684 186.823 5.493 188.393 5.3184C189.266 5.1438 189.963 5.14383 190.836 4.96923C191.01 4.96923 191.185 4.96923 191.359 4.96923V5.14384C191.359 5.49304 191.359 5.84224 191.185 6.01684C190.836 7.41363 189.615 8.28658 188.393 8.81038C186.823 9.50877 185.253 9.68338 183.508 9.85798C184.729 8.46119 186.125 7.41363 187.87 6.88983C188.568 6.54063 189.44 6.366 190.138 6.366C190.312 6.366 190.487 6.19143 190.487 6.01684C190.487 5.84224 190.312 5.66762 190.138 5.66762C187.172 6.01681 184.555 7.58819 182.81 9.85798C182.461 9.50878 182.287 9.15962 182.461 8.63582ZM144.079 9.50882C142.335 9.15962 140.59 8.4612 139.194 7.41361C138.496 6.88981 137.798 6.1914 137.275 5.49301C136.926 4.96921 136.228 4.09624 136.054 3.22324C137.624 3.92164 139.369 4.44544 140.939 5.14384C140.939 5.14384 140.939 5.14384 141.113 5.14384C143.207 5.84224 145.126 7.06439 146.696 8.81038C146.871 8.98498 147.045 9.15962 147.22 9.50882C146.522 9.85801 144.951 9.68341 144.079 9.50882ZM148.092 8.98499C147.743 8.63579 147.22 8.11202 146.871 7.76283C145.126 6.19143 143.207 4.96924 140.939 4.27085C140.241 3.92165 139.369 3.74705 138.671 3.39785C140.241 3.39785 141.811 3.39783 143.207 3.92163C144.254 4.27082 145.3 4.79461 146.173 5.49301C147.045 6.0168 147.917 6.71523 148.092 7.76283C148.615 8.11202 148.441 8.63579 148.092 8.98499ZM106.918 9.1596C105.522 7.7628 104.476 5.84223 103.603 4.09624C105.697 3.92164 107.965 4.44542 109.71 5.66762C110.756 6.36601 111.28 7.23901 111.803 8.2866C111.803 8.4612 111.978 8.63578 111.978 8.81038C110.756 7.93738 109.535 6.71521 108.488 5.66762C108.139 5.31842 107.441 5.84221 107.965 6.366C109.361 7.76279 110.931 9.15961 112.675 10.2072C110.582 11.4294 108.314 10.5564 106.918 9.1596ZM89.995 6.88983C88.4248 7.93743 86.5057 6.88982 85.11 5.84223C83.3653 4.62003 81.6207 3.39783 79.876 2.17564C81.7951 1.30264 84.4121 0.429646 86.5057 1.30264C88.0759 2.00104 88.9482 3.22322 89.646 4.62001C89.4716 4.44541 89.2971 4.27083 88.9482 4.09624C87.0291 2.69944 84.5866 2.00102 82.1441 1.82642C81.6207 1.82642 81.6207 2.69941 82.1441 2.69941C84.5866 2.69941 86.8546 3.57244 88.7737 4.96923C89.1227 5.31843 89.4716 5.49303 89.8205 5.84223C89.646 5.84223 89.4716 6.01679 89.4716 6.19139C89.646 6.71519 89.8205 6.88983 89.995 6.88983ZM27.1876 14.3976H27.0131C25.9663 14.5722 24.9195 14.3976 24.0472 13.8738C22.8259 13.35 21.6047 12.477 21.4302 11.0802C21.2558 9.6834 22.3025 8.28661 23.5238 7.58822C24.7451 6.88982 26.3152 6.7152 27.5365 7.239C28.2344 7.4136 28.7577 7.93741 29.2811 8.46121C29.8045 8.98501 30.1535 9.68341 30.6769 10.3818C30.6769 10.3818 30.6769 10.5564 30.8513 10.5564C30.8513 10.731 30.8513 11.0802 30.8513 11.2548C30.8513 11.4294 31.0258 11.604 31.0258 11.7786C30.8513 11.604 30.5024 11.604 30.3279 11.604C29.6301 11.4294 28.9322 11.4294 28.4088 11.604C28.0599 11.604 27.8854 11.7786 27.711 12.1278C27.5365 12.477 27.5365 12.8262 27.711 13.1754C27.8854 13.6991 28.4088 13.8738 28.9322 14.223C28.2344 14.223 27.711 14.3976 27.1876 14.3976ZM33.8172 14.3976C33.6428 14.3976 33.6428 14.5722 33.4683 14.5722C33.4683 14.9214 33.1194 14.9214 32.7704 15.096C32.4215 15.2706 32.0726 15.4452 31.7237 15.6198C31.0258 15.7944 30.3279 16.1436 29.6301 16.1436C29.1067 16.1436 28.2344 16.1435 28.0599 15.7943C27.8854 15.6197 28.0599 15.2706 28.2344 15.096C28.4088 14.9214 28.7577 14.7468 29.1067 14.7468C29.8045 14.5722 30.5024 14.5722 31.2003 14.7468C31.7236 14.9214 31.8981 14.2229 31.3747 14.0483C30.6769 13.8737 29.979 13.6992 29.4556 13.35C29.1067 13.1754 28.9322 13.1754 28.5833 13.0008C28.4088 12.8262 28.2344 12.8262 28.0599 12.477C27.8854 12.1278 28.4088 11.9532 28.7577 11.9532C29.8045 11.9532 30.8513 12.3024 31.5492 13.0008C31.8981 13.35 32.4215 12.8262 32.0726 12.477C31.7236 11.9532 31.3747 11.4294 31.3747 10.731C31.3747 10.5564 31.2003 10.2072 31.3747 10.0326C31.3747 9.85799 31.7237 9.85798 31.8981 9.85798C32.247 9.85798 32.596 10.2072 32.9449 10.5564C33.6428 11.4294 33.8172 12.6516 33.9917 13.8738C33.8172 14.223 33.8172 14.3976 33.8172 14.3976ZM5.90283 24.3497C4.68157 24.3497 3.28585 23.8259 2.58799 22.7783C2.0646 22.2545 1.89013 21.5561 1.89013 20.6831C1.89013 19.9847 2.23906 19.2863 2.58799 18.7625C3.46032 17.7149 4.85603 16.8419 6.25176 16.8419C7.47301 16.8419 8.69427 17.3657 9.39213 18.4133L9.56659 18.5879C9.74106 18.9371 9.91552 19.2863 10.09 19.6355C10.2645 19.8101 10.4389 20.1593 10.4389 20.3339C9.74106 20.3339 9.21766 20.5086 8.69427 20.8578C8.17087 21.2069 7.82194 21.9053 8.17087 22.4291C8.34534 22.6037 8.69427 22.7783 8.86873 22.7783C9.0432 22.7783 9.21766 22.7783 9.56659 22.7783C8.5198 23.6513 7.12408 24.3497 5.90283 24.3497ZM11.6602 22.9529C11.3112 23.4767 10.9623 23.8259 10.6134 24.1751C10.4389 24.3497 10.2645 24.5243 9.91552 24.5243C9.91552 24.5243 9.91552 24.5243 9.74106 24.5243C9.74106 24.5243 9.74106 24.5243 9.74106 24.3497C9.74106 24.1751 9.91552 24.0005 10.09 23.8259C10.2645 23.6513 10.4389 23.4767 10.6134 23.3021C10.9623 22.9529 11.4857 22.7783 11.8346 22.6037C11.8346 22.6037 11.6602 22.7783 11.6602 22.9529ZM12.358 21.3815C12.358 21.5561 12.358 21.5561 12.358 21.3815C12.1836 21.7307 12.1836 21.9053 12.1836 21.9053C12.1836 21.7307 12.0091 21.5561 11.6602 21.5561C10.9623 21.7307 10.4389 21.9053 9.74106 21.9053C9.39213 21.9053 9.21766 21.9053 8.86873 21.7307C8.69427 21.7307 8.5198 21.7307 8.69427 21.5561C8.69427 21.3815 9.0432 21.2069 9.21766 21.0323C9.39213 20.8577 9.74106 20.8577 10.09 20.6831C10.4389 20.6831 10.6134 20.6831 10.9623 20.6831H11.1368C11.3112 20.8577 11.3112 20.8577 11.4857 21.0323C11.6602 21.2069 12.0091 21.2069 12.0091 20.8578C12.1836 20.334 11.8346 20.1594 11.4857 19.9848C11.1368 19.6356 10.9623 19.2863 10.6134 18.7625C10.4389 18.4133 10.2645 18.2387 10.2645 17.8895C10.2645 17.7149 10.09 17.3658 10.2645 17.1912C10.2645 17.1912 10.4389 17.1912 10.4389 17.0166C10.6134 17.0166 10.6134 17.0166 10.7878 17.0166C10.9623 17.0166 11.1368 17.1912 11.3112 17.3658C12.0091 18.0642 12.1836 19.1117 12.358 20.1593C12.1836 20.8577 12.1836 21.2069 12.358 21.3815ZM90.6928 19.1118C85.8078 20.5086 80.9228 21.7307 75.8633 22.4291C71.1527 23.1275 66.2677 23.1275 61.5572 22.6037C59.1147 22.4291 56.8466 22.0799 54.4041 21.5561C64.3486 18.7626 73.5953 14.0484 83.7142 11.9532C89.2971 10.731 94.88 10.731 100.288 12.1278C102.731 12.8262 105.173 13.6992 107.441 14.7468C101.859 15.969 96.2757 17.5404 90.6928 19.1118ZM106.569 24.3497C106.395 24.3497 106.046 24.1751 105.871 24.1751C105.871 24.1751 105.697 24.1751 105.697 24.3497L106.046 24.1751C106.569 24.0005 106.918 23.6513 107.441 23.4767L110.058 22.0799C111.629 21.2069 113.199 19.9847 114.769 20.6831C113.199 21.0323 111.629 21.7307 110.233 22.6037C109.71 22.9529 110.233 23.6513 110.756 23.3021C112.152 22.4291 113.548 21.7307 115.118 21.3815C113.548 24.5243 109.535 25.2227 106.569 24.3497ZM130.296 32.7305C128.726 34.1273 126.633 35.0003 124.714 34.6511C125.935 33.0797 126.458 30.9845 127.505 29.2385C128.552 27.1433 130.296 25.5719 132.739 25.9211C132.041 26.4449 131.343 26.9687 130.82 27.6671C129.25 29.5877 128.552 32.2066 126.284 33.2542C125.76 33.4288 126.284 34.3019 126.807 33.9527C128.901 32.9051 129.773 30.8099 130.994 28.8893C131.518 28.0163 132.39 27.3179 133.088 26.6195C132.739 28.8893 131.867 31.1591 130.296 32.7305ZM147.917 32.9051C147.394 34.8257 146.347 36.7463 145.126 38.3177C143.207 41.2858 140.415 43.9048 136.926 44.9524C138.496 42.3334 138.845 39.1906 139.543 36.0478C139.892 34.3018 140.415 32.5559 141.288 30.9845C142.16 29.4131 143.73 27.4925 145.824 28.0163H145.998C143.381 32.5558 142.16 38.143 138.845 42.3334C138.496 42.6826 139.194 43.381 139.543 42.8572C143.032 38.6668 144.079 32.9051 146.871 28.3655C148.266 29.2385 148.441 31.3337 147.917 32.9051ZM143.905 23.6513C138.147 24.1751 132.216 23.4767 126.458 21.9053C124.888 21.3815 123.318 20.8577 121.748 20.3339C121.748 20.1593 121.573 19.9848 121.399 19.9848C121.05 19.9848 120.875 19.9847 120.526 19.8101C117.386 18.4134 114.246 16.842 111.105 15.4452C110.756 15.2706 110.407 15.0959 110.058 14.9213C114.42 14.0483 118.607 13.35 122.969 12.8262C133.262 11.7786 143.381 12.1278 153.5 13.8738C158.211 14.7468 162.921 15.7943 167.632 16.8419C160.13 19.9847 152.279 23.1275 143.905 23.6513ZM193.976 28.1909C194.325 28.8893 194.325 29.7623 194.325 30.4607C194.325 31.3337 193.976 32.0321 193.453 32.7305C192.929 33.4289 192.406 33.9527 191.883 34.6511C191.708 35.0003 191.359 35.1749 191.01 35.3494L190.836 35.5241H190.661C190.661 35.3495 190.661 35.1748 190.487 35.1748C190.138 33.2543 189.789 31.5083 189.44 29.5877C189.266 28.5401 188.917 27.4925 189.266 26.6195C189.44 25.9211 189.789 25.2227 190.487 25.0481C190.661 25.0481 190.836 24.8735 190.836 24.6989C190.836 24.8735 191.01 25.0481 191.01 25.2227C190.661 25.2227 190.487 25.7465 190.836 25.9211C191.01 25.9211 191.185 26.0957 191.359 26.0957C191.708 26.9687 191.708 27.8417 191.708 28.7147C191.708 29.7623 191.708 30.6353 191.534 31.6829C191.534 32.2067 192.231 32.2067 192.231 31.6829C192.406 29.9369 192.406 28.1909 192.057 26.4449C192.929 26.6195 193.627 27.3179 193.976 28.1909ZM196.07 19.2863C194.848 19.6355 193.627 19.9847 192.406 20.3339C192.231 20.3339 192.232 20.5085 192.057 20.6831C189.963 21.0323 187.87 21.0323 185.602 20.6831C184.904 20.6831 184.206 20.5085 183.508 20.3339C182.287 19.9847 181.24 19.6355 180.019 19.2863C176.879 18.4133 173.913 17.5403 170.772 16.8419C174.087 15.6197 177.576 14.3976 181.066 13.5246C181.24 13.5246 181.24 13.35 181.415 13.1754C183.334 13.1754 185.253 13.1754 186.998 13.1754C188.044 13.1754 188.917 13.1754 189.963 13.0008C190.836 13.0008 191.708 12.8262 192.58 12.8262C193.278 12.8262 193.976 13.0008 194.674 13.1754L194.848 13.35H195.023H195.197C198.512 14.223 201.827 15.4451 205.142 16.6673C202.176 17.7149 199.036 18.4133 196.07 19.2863ZM229.218 28.1909C232.01 32.7305 233.056 38.4923 236.546 42.6826C236.895 43.0318 237.592 42.508 237.243 42.1588C233.929 37.9684 232.707 32.3813 230.09 27.8417H230.265C232.358 27.3179 233.929 29.2385 234.801 30.8099C235.673 32.3813 236.197 34.1272 236.546 35.8732C237.243 38.8414 237.592 41.9842 239.163 44.7778C235.673 43.7302 232.882 41.1112 230.963 38.143C229.916 36.3971 228.695 34.6511 228.171 32.7305C227.648 31.3337 227.822 29.2385 229.218 28.1909ZM249.979 33.2542C247.711 32.2066 246.839 29.5877 245.443 27.6671C244.92 26.9687 244.222 26.4449 243.524 25.9211C245.792 25.5719 247.711 27.1433 248.758 29.2385C249.631 30.9845 250.328 33.0797 251.55 34.6511C249.456 35.0003 247.362 34.3019 245.967 32.7305C244.397 31.1591 243.524 28.8893 243.35 26.6195C244.222 27.3179 244.92 28.0163 245.443 28.8893C246.665 30.6353 247.537 32.9051 249.631 33.9527C249.979 34.3019 250.503 33.4288 249.979 33.2542ZM266.03 22.4291C264.634 21.5561 263.064 20.8577 261.494 20.5085C263.239 19.8101 264.809 21.0323 266.205 21.9053L268.822 23.3021C269.345 23.4767 269.694 23.8259 270.217 24.0005L270.566 24.1751C270.566 24.1751 270.392 24.1751 270.392 24.0005C270.217 24.0005 269.868 24.1751 269.694 24.1751C266.554 25.0481 262.541 24.3497 261.32 21.0323C262.89 21.3815 264.286 22.0799 265.681 22.9529C266.03 23.3021 266.554 22.6037 266.03 22.4291ZM264.809 15.4452C261.669 17.0166 258.528 18.588 255.388 19.8101C255.039 19.8101 254.864 19.8102 254.516 19.9848C254.341 19.9848 254.167 20.1593 254.167 20.3339C252.596 21.0323 251.026 21.5561 249.456 21.9053C243.873 23.4767 237.941 24.0005 232.01 23.6513C223.635 22.9529 215.784 19.9847 208.108 17.0166C212.818 15.7944 217.529 14.9213 222.24 14.0483C232.358 12.3024 242.477 11.9532 252.771 13.0008C257.133 13.5246 261.494 14.223 265.681 15.096C265.507 15.2706 265.158 15.4452 264.809 15.4452ZM314.531 22.6037C309.821 23.1275 304.936 22.9529 300.225 22.4291C295.166 21.7307 290.281 20.5086 285.396 19.1118C279.813 17.5404 274.23 16.1435 268.473 14.9213C270.741 13.8737 273.183 13.0008 275.626 12.3024C281.034 10.731 286.792 10.9056 292.2 12.1278C302.319 14.223 311.566 18.9372 321.51 21.7307C319.242 22.0799 316.974 22.4291 314.531 22.6037ZM366.348 24.5243C365.999 24.5243 365.824 24.3497 365.475 24.1751C365.126 23.8259 364.603 23.4767 364.428 22.9529C364.254 22.7783 364.254 22.6037 364.08 22.4291C364.603 22.6037 364.952 22.7783 365.301 23.1275C365.475 23.3021 365.65 23.4767 365.824 23.6513C366.173 24.0005 366.348 24.1751 366.348 24.5243C366.348 24.3497 366.348 24.3497 366.348 24.5243ZM366.348 22.0799C365.65 22.0799 364.952 21.9053 364.428 21.7307C364.254 21.7307 364.08 21.7307 363.905 22.0799C363.905 21.9053 363.731 21.9053 363.731 21.7307V21.5561C363.905 21.3815 363.905 21.0324 363.731 20.8578C363.905 19.8102 364.08 18.7626 364.777 18.0642C364.952 17.8896 365.126 17.7149 365.301 17.7149C365.475 17.7149 365.475 17.7149 365.65 17.7149C365.65 17.7149 365.824 17.7149 365.824 17.8895C365.999 18.0641 365.824 18.4133 365.824 18.5879C365.65 18.9371 365.65 19.1117 365.475 19.4609C365.301 19.8101 364.952 20.3339 364.603 20.6831C364.254 20.8577 363.905 21.0323 364.08 21.5561C364.08 21.9053 364.428 21.9053 364.603 21.7307C364.777 21.5561 364.777 21.5561 364.952 21.3815H365.126C365.475 21.3815 365.65 21.3815 365.999 21.3815C366.348 21.3815 366.522 21.5561 366.871 21.7307C367.045 21.9053 367.394 21.9053 367.394 22.2545C367.394 22.4291 367.22 22.4291 367.22 22.4291C367.045 22.0799 366.697 22.0799 366.348 22.0799ZM373.675 22.6037C372.803 23.6513 371.582 24.1751 370.36 24.1751C368.965 24.1751 367.743 23.6513 366.697 22.6037C366.871 22.6037 367.045 22.6037 367.394 22.6037C367.743 22.6037 367.918 22.4291 368.092 22.2545C368.441 21.7307 368.092 21.0323 367.569 20.6831C367.045 20.3339 366.348 20.1593 365.824 20.1593C365.999 19.9847 366.173 19.8101 366.173 19.4609C366.348 19.1117 366.522 18.7625 366.697 18.4133C366.697 18.4133 366.871 18.4134 366.871 18.2388C367.569 17.1912 368.79 16.6673 370.011 16.6673C371.407 16.6673 372.803 17.5403 373.675 18.5879C374.199 19.1117 374.373 19.8101 374.373 20.5085C374.373 21.3815 374.024 22.0799 373.675 22.6037Z" fill="white"/>
</svg>
