<svg width="336" height="59" viewBox="0 0 336 59" fill="none" xmlns="http://www.w3.org/2000/svg">
<path d="M335.293 32.1213C334.814 31.4313 334.335 30.7414 333.697 30.2239C333.059 29.7064 332.42 29.5339 331.622 29.3614C330.345 29.1889 329.069 29.7064 328.111 30.7413V30.5688C327.792 29.8789 326.994 30.0514 326.515 30.3963C326.036 30.7413 325.557 31.4313 325.398 31.9488C325.238 32.6388 325.079 33.3287 324.919 34.0187C314.545 36.951 303.692 37.4685 293.159 35.5711C292.201 35.3986 291.243 35.2261 290.286 34.8811C294.595 33.6737 298.745 32.1213 302.894 30.0514C303.852 29.5339 304.65 29.1889 305.607 28.6714C305.767 28.8439 305.927 29.0164 306.086 29.1889C306.405 29.3614 306.725 29.5339 307.203 29.7064C308.001 30.0514 308.799 30.3963 309.597 30.3963C310.395 30.5688 311.193 30.3963 311.672 29.7064C311.832 29.3614 311.991 28.844 311.672 28.499C312.63 28.6715 313.587 28.6714 314.545 28.3265C315.822 27.809 317.258 26.9465 317.737 25.3941C318.216 23.8416 317.418 22.1167 316.301 21.0818C315.183 20.0468 313.587 19.7018 312.151 20.0468C311.353 20.2193 310.555 20.7368 309.917 21.2543C309.278 21.7717 308.959 22.6342 308.48 23.3242C308.321 23.1517 308.161 23.1517 308.161 22.9792C307.523 22.8067 307.044 22.9792 306.565 23.4967C306.086 24.0141 305.927 24.5316 305.607 25.2216C305.288 25.9115 305.129 26.774 305.129 27.6365C305.129 27.809 305.129 27.809 305.288 27.9815C300.021 30.9138 294.435 33.1563 288.53 34.5362C284.859 33.5012 281.348 32.2938 277.837 30.9138C273.049 29.0164 268.261 26.9465 263.313 25.3941C259.323 24.1866 255.333 23.4967 251.184 23.6692C251.982 22.9792 252.461 21.9442 253.099 21.0818C253.259 20.9093 253.259 20.7368 253.418 20.5643C254.855 22.1167 256.929 21.5993 258.366 20.5643C260.441 19.1844 262.515 17.4594 264.431 15.907C264.59 15.7345 264.59 15.3895 264.431 15.217C262.356 14.0096 259.643 12.9746 257.249 14.0096C255.014 15.0445 253.897 17.287 253.099 19.7019C252.939 19.8743 252.939 19.8743 252.78 20.0468C251.982 21.0818 251.503 22.2892 250.545 23.1517C250.386 23.3242 250.386 23.6692 250.545 23.6692C249.907 23.6692 249.269 23.8417 248.79 23.8417C244.64 24.3591 240.81 25.9115 236.979 27.809C234.266 27.119 231.393 26.6015 228.68 26.084C230.276 25.739 231.713 25.0491 233.149 24.1867C234.905 25.5666 237.139 25.0491 238.735 23.6692C240.65 22.1167 241.767 19.5294 242.885 17.287C243.044 16.942 242.885 16.597 242.565 16.597C240.331 16.4245 238.097 16.942 236.181 18.1494C235.383 18.6669 234.585 19.3569 234.107 20.3918C233.628 21.4268 233.468 22.4617 232.67 23.1517L232.511 23.3242C230.595 24.5316 228.521 25.3941 226.127 25.2216C225.967 25.2216 225.807 25.3941 225.807 25.3941C216.87 24.1866 207.773 24.1866 198.835 25.5666H198.675C199.473 24.7041 200.271 23.8417 201.069 22.9792C201.867 23.3242 202.825 23.4967 203.783 23.4967C205.698 23.3242 207.613 22.6342 209.209 21.4268C210.167 20.7368 210.805 19.8744 211.443 19.0119C212.082 18.1494 212.72 16.7695 212.561 15.5621C212.561 15.3896 212.241 15.217 212.082 15.217H211.922C209.369 15.7345 206.815 15.0446 204.421 16.0795C202.665 16.942 200.112 18.1494 199.793 20.5643C199.633 21.4268 199.952 21.9443 200.271 22.4617C199.314 23.4967 198.516 24.7041 197.399 25.3941C197.239 25.3941 197.239 25.5666 197.239 25.7391C193.249 26.429 189.259 27.2915 185.269 28.3265C185.109 28.154 185.109 27.809 184.95 27.6365C184.471 26.774 183.992 25.9116 183.354 25.0491C183.992 25.0491 184.631 24.7041 185.269 24.5316C185.748 25.2216 186.546 25.7391 187.503 25.9116C188.78 26.0841 189.897 25.7391 191.015 25.0491C193.089 23.6692 194.685 21.5992 195.643 19.3568C196.281 18.1494 196.601 16.7695 196.92 15.3896C196.92 15.0446 196.76 14.8721 196.441 15.0445C194.207 15.907 191.813 16.0795 189.578 16.7695C187.663 17.4594 185.588 18.8394 184.95 21.0818C184.79 21.5992 184.631 22.2892 184.79 22.8067C184.79 23.1517 184.95 23.6692 185.269 23.8417V24.0142C184.631 24.1867 183.992 24.3591 183.354 24.5316H183.194C183.035 24.3591 182.875 24.1867 182.875 24.0142C182.077 23.1517 181.279 22.4617 180.481 21.9442C180.481 21.9442 180.641 21.9442 180.641 21.7717C182.875 19.8743 183.833 16.9419 183.833 14.0096C183.673 10.5597 182.237 7.45489 180.321 4.69502C179.843 4.00505 179.364 3.31511 178.725 2.62514C178.406 2.28016 178.247 1.93516 177.927 1.59018C177.608 1.24519 177.449 0.90021 177.129 0.727718C176.81 0.382734 176.331 0.382734 176.012 0.727718C175.853 1.0727 175.693 1.59015 175.533 1.93513C175.214 2.79759 175.055 3.4876 174.895 4.35006C174.576 6.07499 174.576 7.79991 174.735 9.52483C174.895 11.0773 175.055 12.8022 175.374 14.3546C175.853 16.4245 176.491 18.4944 177.608 20.3918C176.651 20.0468 175.853 19.7018 174.895 19.5294C171.703 18.6669 168.351 18.4944 165 18.8394C163.085 19.0119 161.01 19.3568 159.095 20.0468C160.052 18.3219 160.691 16.252 161.01 14.3546C161.329 12.8022 161.489 11.2498 161.648 9.52483C161.808 7.79991 161.648 6.07499 161.489 4.35006C161.329 3.4876 161.169 2.6251 160.85 1.93513C160.691 1.59015 160.531 1.0727 160.371 0.727718C160.052 0.210242 159.733 0.382734 159.254 0.727718C158.935 1.0727 158.775 1.41769 158.456 1.59018C158.137 1.93516 157.977 2.28016 157.658 2.62514C157.179 3.31511 156.701 4.00505 156.062 4.69502C154.147 7.45489 152.711 10.5597 152.551 14.0096C152.391 16.7695 153.349 19.5294 155.264 21.4268C153.828 22.1167 152.232 22.8067 150.795 23.4967C149.838 22.6342 149.199 21.4268 148.721 20.2193C149.997 19.5293 150.795 18.1494 151.115 16.7695C151.593 14.5271 150.955 12.2847 150.157 10.3873C149.678 9.17984 149.04 8.14485 148.401 7.1099C148.242 6.9374 148.082 6.76495 147.923 6.93745C146.486 8.83486 144.89 10.5598 144.252 12.9747C143.933 14.1821 143.933 15.3896 144.092 16.4245C144.252 17.4595 144.731 18.4944 145.529 19.3568C145.848 19.8743 146.327 20.2193 146.965 20.3918C147.284 20.3918 147.444 20.3918 147.603 20.3918C147.603 20.3918 147.763 20.5643 147.923 20.5643H148.082C148.242 20.9093 148.401 21.0818 148.401 21.4268C148.88 22.2892 149.359 23.1517 150.157 23.8417C149.04 24.5316 148.082 25.0491 146.965 25.7391C146.646 25.9116 146.327 26.2565 146.007 26.429L145.848 26.6015C145.688 26.774 145.369 26.774 145.209 26.9465C142.975 26.429 140.741 26.0841 138.506 25.5666C138.506 25.3941 138.506 25.3941 138.347 25.2216C137.229 24.3591 136.431 23.3242 135.474 22.2892C135.793 21.7718 136.112 21.2543 135.953 20.3918C135.793 18.1494 133.08 16.7695 131.324 15.907C128.93 14.8721 126.377 15.562 123.823 15.0445H123.663C123.504 15.0445 123.185 15.2171 123.185 15.3896C123.025 16.597 123.663 17.8044 124.302 18.8394C124.94 19.8743 125.738 20.5643 126.536 21.2543C128.132 22.4617 130.047 23.1517 131.963 23.3242C132.92 23.3242 133.878 23.3242 134.676 22.8067C135.474 23.6692 136.112 24.5316 137.07 25.3941H136.91C127.973 24.0141 119.035 24.0141 109.938 25.2216C109.938 25.0491 109.778 25.0491 109.619 25.0491C107.384 25.0491 105.15 24.3591 103.235 23.1517C103.235 23.1517 103.235 22.9792 103.075 22.9792C102.277 22.2892 102.117 21.0818 101.639 20.2193C101.16 19.1844 100.521 18.4944 99.5639 17.9769C97.6487 16.7695 95.4143 16.252 93.1799 16.4245C92.8607 16.4245 92.7011 16.7695 92.8607 17.1145C93.9779 19.3569 95.0951 21.9442 97.0103 23.4967C98.6063 24.8766 100.841 25.3941 102.596 24.0142C104.033 24.8766 105.469 25.5666 107.065 25.9116C104.192 26.4291 101.479 26.9465 98.7659 27.6365C94.9355 25.7391 91.1051 24.1866 86.9555 23.6692C86.3171 23.6692 85.6787 23.4967 85.1999 23.4967C85.3595 23.3242 85.3595 23.1517 85.1999 22.9792C84.2423 22.2892 83.7635 20.9093 82.9655 19.8744C82.8059 19.7019 82.8059 19.7018 82.6463 19.5294C81.8483 17.287 80.5715 14.8721 78.4967 13.8371C76.1027 12.8022 73.5491 13.8371 71.3147 15.0445C71.1551 15.217 70.9955 15.562 71.3147 15.7345C73.3895 17.2869 75.3047 19.0119 77.3795 20.3918C78.9755 21.4268 81.0503 21.7717 82.3271 20.3918C82.4867 20.5643 82.4867 20.7368 82.6463 20.9093C83.2847 21.7717 83.7635 22.8067 84.5615 23.4967C80.4119 23.3242 76.4219 24.0141 72.4319 25.2216C67.4843 26.6015 62.6963 28.8439 57.9083 30.7413C54.3971 32.1213 50.8859 33.3287 47.2151 34.3637C41.4695 32.9837 35.8835 30.5688 30.4571 27.809C30.6167 27.809 30.6167 27.6365 30.6167 27.464C30.6167 26.6015 30.4571 25.9116 30.1379 25.0491C29.9783 24.3592 29.6591 23.8417 29.1803 23.3242C28.7015 22.8067 28.2227 22.6342 27.5843 22.8067C27.4247 22.8067 27.2651 22.9792 27.2651 23.1517C26.9459 22.4617 26.4671 21.7717 25.8287 21.0818C25.1903 20.3918 24.3923 20.0469 23.5943 19.8744C22.1579 19.5294 20.5619 19.8743 19.4447 20.9093C18.3275 21.9442 17.3699 23.6691 18.0083 25.2216C18.4871 26.774 19.9235 27.6365 21.2003 28.154C22.1579 28.4989 23.1155 28.499 24.0731 28.3265C23.9135 28.6714 23.9135 29.1889 24.0731 29.5339C24.5519 30.2238 25.3499 30.3964 26.1479 30.2239C26.9459 30.0514 27.7439 29.8789 28.5419 29.5339C28.8611 29.3614 29.3399 29.1889 29.6591 29.0164C29.8187 28.8439 29.9783 28.6715 30.1379 28.499C31.0955 29.0164 31.8935 29.5339 32.8511 29.8789C36.8411 31.9488 41.1503 33.5012 45.4595 34.7086C44.5019 34.8811 43.5443 35.0537 42.5867 35.3987C32.0531 37.4686 21.2003 36.951 10.8263 33.8462C10.6667 33.1562 10.6667 32.4663 10.3475 31.7763C10.1879 31.0863 9.70908 30.5689 9.23028 30.2239C8.75148 29.8789 7.95348 29.8789 7.63428 30.3963V30.5688C6.67668 29.5339 5.39988 29.0164 4.12308 29.1889C3.32508 29.1889 2.68668 29.5339 2.04828 30.0514C1.40988 30.5689 0.771484 31.0863 0.452284 31.9488C-0.345716 33.5012 -0.026517 35.3986 0.931083 36.6061C2.52708 38.5035 5.39988 38.676 7.31508 37.1236C7.15548 37.4686 7.15548 37.641 7.31508 37.986C7.63428 38.8485 8.59188 38.331 9.07068 37.8135C9.54948 37.2961 10.0283 36.7786 10.3475 36.0886C10.5071 35.7436 10.6667 35.3986 10.8263 35.0536C10.8263 34.8812 10.9859 34.8811 10.9859 34.7086C12.1031 35.0536 13.2203 35.3986 14.3375 35.5711C24.7115 37.986 35.5643 37.986 45.9383 35.3987C46.4171 35.2262 46.7363 35.2261 47.2151 35.0536C50.7263 35.9161 54.2375 36.4336 57.7487 36.6061C62.0579 36.951 66.5267 36.6061 70.8359 35.7436C75.4643 34.8811 79.9331 33.5012 84.4019 32.1213C89.1899 30.7413 93.9779 29.3614 98.7659 28.3265C100.841 29.3614 102.915 30.3963 104.831 31.4313C105.629 31.7763 106.427 32.2938 107.384 32.6388C106.586 32.6388 105.788 32.8112 104.99 32.9837C104.99 32.9837 104.99 32.8113 104.831 32.8113C102.756 31.4313 100.841 32.9837 98.9255 34.0187C97.8083 34.7087 96.6911 35.3986 95.5739 36.0886C94.9355 36.4336 94.4567 37.1236 95.2547 37.641C96.2123 38.1585 97.3295 38.331 98.4467 38.331C99.5639 38.331 100.521 38.331 101.639 37.8135C103.235 37.1236 104.671 35.7436 105.15 33.8462C106.586 33.5012 108.023 33.5012 109.299 33.6737C112.491 35.0537 115.843 36.2611 119.354 36.9511C120.471 37.1236 121.748 37.296 122.865 37.4685C122.227 37.641 121.748 37.986 121.11 38.1585C121.11 38.1585 120.95 38.1585 120.95 37.986C118.716 37.2961 116.641 38.5035 115.364 40.4009C113.928 42.4708 113.609 45.2307 112.013 47.3006C111.853 47.4731 111.853 47.9906 112.172 47.9906C114.407 48.6805 116.801 47.8181 118.556 46.2656C120.471 44.3682 121.269 41.7808 121.269 39.0209C121.269 39.0209 121.269 39.021 121.269 38.8485C122.227 38.1585 123.344 37.8135 124.621 37.641C124.781 37.641 124.94 37.4685 124.94 37.296C128.132 37.4685 131.484 37.296 134.676 36.6061C134.995 36.6061 135.314 36.4336 135.633 36.4336C134.676 37.4685 133.878 38.5035 133.08 39.711C133.08 39.711 132.92 39.7109 132.92 39.5385C132.761 39.5385 132.761 39.5385 132.601 39.5385C128.93 38.676 127.015 43.5058 126.377 46.6106C125.579 50.233 125.419 54.3728 123.344 57.6501C123.185 57.9951 123.344 58.3401 123.663 58.3401C127.813 57.6501 131.005 54.2003 133.08 50.4054C134.197 48.508 135.314 46.2656 135.474 43.8508C135.474 42.4708 134.995 40.9184 133.878 40.0559C134.835 38.676 135.793 37.2961 137.229 36.2611L137.389 36.0886C143.135 34.7087 148.561 32.2938 154.147 30.0514C156.222 30.5689 158.137 31.0863 160.212 31.7763C158.616 32.6388 157.179 33.5012 155.743 34.7086C155.424 34.0187 154.945 33.5012 154.307 33.1562C153.509 32.8112 152.711 32.9837 151.913 33.1562C151.115 33.5012 150.476 33.8462 149.678 34.3637C149.04 34.8812 148.401 35.3986 147.923 35.9161C145.688 38.331 144.092 41.4359 143.613 44.8857C143.294 46.7831 143.294 48.6805 143.613 50.5779C143.773 51.4404 143.933 52.4754 144.252 53.3378C144.252 53.5103 144.411 53.8553 144.411 54.0278C144.411 54.2003 144.571 54.5452 144.731 54.7177C145.05 55.2352 145.688 54.8902 146.007 54.5452C147.603 53.6828 148.88 52.4753 150.157 51.2679C151.434 50.0605 152.551 48.6805 153.509 47.1281C154.466 45.5757 154.945 43.8507 155.264 41.9533C155.583 40.0559 155.743 38.1585 155.743 36.2611C155.743 35.9161 155.743 35.7436 155.743 35.3987C156.062 35.2262 156.381 34.8811 156.701 34.7086C157.977 33.6737 159.414 32.8112 161.01 32.1213L161.169 31.9488C161.967 32.1213 162.925 32.4663 163.723 32.6388V32.8113C164.521 33.6737 165.319 34.7087 165.798 35.7436C164.84 36.4336 164.202 37.4685 163.883 38.5035C163.404 39.7109 163.404 41.2633 163.404 42.4708C163.563 45.2307 164.681 47.9905 165.638 50.4054C166.277 51.7854 166.915 53.3378 167.394 54.8902C167.553 55.2352 167.873 55.2352 168.032 55.0627C169.788 52.6479 171.065 49.7155 171.384 46.6106C171.703 43.6783 171.065 40.4009 169.469 37.986C168.99 37.2961 168.511 36.6061 167.873 36.0886C167.394 35.7436 166.915 35.5711 166.436 35.5711C166.436 35.3986 166.277 35.2261 166.277 35.0536C165.798 34.1912 165.319 33.5012 164.681 32.8113C165.479 32.9838 166.277 33.3287 166.915 33.5012H167.075C167.553 33.6737 168.192 33.8462 168.671 33.5012C168.83 33.5012 168.99 33.3287 168.99 33.1562C169.628 32.9837 170.267 32.8113 170.905 32.6388C170.745 33.3287 170.905 34.0187 170.905 34.7086C170.905 34.7086 170.905 34.8811 170.745 34.8811C169.628 36.4336 169.947 38.676 170.905 40.2284C171.384 41.0909 172.022 41.6083 172.82 41.9533C173.618 42.2983 174.257 42.4708 175.055 42.6433C175.853 42.8158 176.81 42.9883 177.608 43.5058C177.768 43.6782 178.087 43.5057 178.087 43.3332C178.725 41.6083 178.087 39.7109 177.129 38.331C176.651 37.641 176.172 37.1235 175.533 36.6061C174.895 36.0886 174.257 35.5711 173.618 35.2262C172.98 34.8812 172.341 34.7086 171.543 34.7086C171.384 34.1912 171.384 33.5012 171.384 32.9837C171.384 32.8112 171.384 32.8113 171.384 32.6388C172.341 32.2938 173.139 32.1213 174.097 31.7763C174.097 31.7763 174.097 31.9488 174.257 31.9488C175.693 32.6388 177.129 33.5012 178.566 34.5362C178.885 34.7087 179.204 35.0537 179.523 35.2262C179.523 35.5711 179.523 35.7436 179.523 36.0886C179.523 37.986 179.683 39.8834 180.002 41.7808C180.321 43.6782 180.96 45.4032 181.758 46.9556C182.715 48.508 183.833 49.888 185.109 51.0954C186.386 52.3028 187.823 53.5103 189.259 54.3728C189.578 54.5453 190.217 55.0627 190.536 54.5452C190.695 54.3727 190.695 54.0278 190.855 53.8553C190.855 53.6828 191.015 53.3378 191.015 53.1653C191.334 52.3029 191.493 51.2679 191.653 50.4054C191.813 49.0255 191.972 47.4731 191.813 46.0931C192.132 46.4381 192.611 46.9556 193.089 47.1281C193.568 47.4731 194.047 47.6456 194.526 47.8181C195.005 47.9905 195.483 48.163 195.803 48.508C196.122 49.0255 196.281 49.543 196.281 50.2329C196.281 50.5779 196.76 50.5779 196.92 50.4054C198.037 48.163 198.516 45.5757 198.037 42.9883C197.718 40.4009 196.441 37.986 194.526 36.4336C193.249 35.3986 191.653 34.8812 190.057 35.3987C189.897 35.3987 189.897 35.7436 189.897 35.7436C189.578 35.5711 189.259 35.2261 188.94 34.8811C187.982 34.0187 187.184 32.9837 186.705 31.7763C190.376 33.1562 193.887 34.5362 197.718 35.3987C197.718 35.3987 197.718 35.5711 197.877 35.5711C199.314 36.6061 200.271 37.986 201.229 39.366C200.112 40.2284 199.633 41.6084 199.633 43.1608C199.633 45.4032 200.91 47.8181 202.027 49.7155C204.102 53.5103 207.294 56.9602 211.443 57.6501C211.763 57.6501 212.082 57.3052 211.763 56.9602C209.688 53.8553 209.528 49.7155 208.73 45.9206C208.092 42.9883 206.017 38.1585 202.506 38.8485C202.506 38.8485 202.346 38.8485 202.187 38.8485C202.187 38.8485 202.027 38.8485 202.027 39.0209C201.389 37.8135 200.431 36.7786 199.473 35.7436C199.793 35.7436 200.112 35.9161 200.431 35.9161C203.623 36.4336 206.815 36.7786 210.167 36.6061C210.167 36.7786 210.326 36.7786 210.486 36.9511C211.763 37.1236 212.88 37.4685 213.837 38.1585C213.837 38.1585 213.837 38.1585 213.837 38.331C213.997 40.9184 214.795 43.6783 216.551 45.5757C218.306 47.3006 220.7 47.9906 222.935 47.3006C223.254 47.1281 223.254 46.7831 223.094 46.6106C221.498 44.7132 221.019 41.9534 219.743 39.711C218.466 37.641 216.391 36.4336 214.157 37.296C214.157 37.296 213.997 37.296 213.997 37.4685C213.518 37.1235 212.88 36.9511 212.241 36.7786C213.359 36.6061 214.635 36.4336 215.753 36.2611C219.264 35.5711 222.615 34.5361 225.807 32.9837C227.244 32.8112 228.68 32.8112 229.957 33.1562C230.436 35.0536 231.872 36.4336 233.468 37.1236C234.426 37.4686 235.543 37.641 236.66 37.641C237.618 37.641 238.895 37.4685 239.852 36.9511C240.65 36.4336 240.171 35.7436 239.533 35.3987C238.416 34.7087 237.299 34.0187 236.181 33.3287C234.426 32.1213 232.351 30.5688 230.276 32.1213C230.117 32.1213 230.117 32.2938 230.117 32.2938C229.319 32.1213 228.521 31.9488 227.723 31.9488C228.521 31.6038 229.319 31.0863 230.276 30.7413C232.351 29.7064 234.266 28.6715 236.341 27.6365C241.129 28.6715 245.917 30.0514 250.705 31.4313C255.174 32.8112 259.643 34.1912 264.271 35.0536C268.58 35.9161 272.889 36.0886 277.358 35.9161C280.869 35.7436 284.381 35.2262 287.892 34.3637C288.371 34.5362 288.69 34.5361 289.169 34.7086C299.543 37.1235 310.395 37.296 320.769 34.8811C321.887 34.5362 323.004 34.3637 324.121 34.0187C324.121 34.1912 324.121 34.1912 324.281 34.3637C324.44 34.7087 324.6 35.0537 324.759 35.3987C325.079 36.0886 325.557 36.6061 326.036 37.1236C326.515 37.4686 327.473 38.1585 327.792 37.296C327.951 36.951 327.792 36.7785 327.792 36.4336C329.707 37.8135 332.58 37.8135 334.176 35.9161C335.772 35.5711 336.091 33.6737 335.293 32.1213ZM308.64 24.7041C308.64 24.5316 308.64 24.3591 308.64 24.0142C308.64 24.0142 308.799 24.0141 308.799 23.8417C309.119 23.1517 309.438 22.4617 310.076 21.9442C310.555 21.4268 311.034 21.0818 311.672 20.7368C312.949 20.2193 314.226 20.3918 315.343 21.0818C316.46 21.7717 317.418 23.1517 317.258 24.5316C317.099 25.9116 315.822 26.774 314.864 27.2915C314.066 27.6365 313.109 27.809 312.151 27.809H311.991C311.513 27.809 311.034 27.6365 310.555 27.464C311.034 27.2915 311.513 26.9465 311.672 26.429C311.832 26.0841 311.832 25.7391 311.672 25.3941C311.513 25.0491 311.193 25.0491 311.034 24.8766C310.395 24.7041 309.757 24.7041 309.278 24.8766C309.119 24.8766 308.799 25.0491 308.64 25.0491C308.48 25.2216 308.64 25.0491 308.64 24.7041ZM305.767 27.6365C305.767 26.6016 306.086 25.3941 306.725 24.3591C306.884 24.0141 307.203 23.6692 307.682 23.6692C307.842 23.6692 308.001 23.6692 308.161 23.8417C308.321 24.0141 308.161 24.3591 308.161 24.5316C308.001 25.2216 307.842 25.7391 307.523 26.2565C307.363 26.6015 307.682 26.9465 308.001 26.774C308.64 26.0841 309.597 25.7391 310.555 25.7391C310.874 25.7391 311.353 25.9116 311.193 26.2565C311.034 26.429 310.874 26.6016 310.715 26.774C310.395 26.9465 310.236 27.119 309.917 27.119C309.278 27.464 308.799 27.6365 308.161 27.809C307.682 27.9814 307.842 28.6715 308.321 28.499C308.959 28.3265 309.597 28.3265 310.236 28.499C310.555 28.499 310.715 28.6714 311.034 28.8439C311.193 29.0164 311.193 29.1889 311.193 29.5339C310.874 30.0514 310.236 30.0514 309.757 29.8789C309.119 29.7064 308.48 29.5339 307.842 29.3614C307.523 29.1889 307.203 29.0164 306.884 28.8439C306.725 28.6714 306.405 28.6714 306.246 28.3265C306.246 28.154 306.086 28.154 305.927 28.154C305.927 28.154 305.927 28.154 305.767 28.154C305.767 27.809 305.767 27.809 305.767 27.6365ZM261.239 15.5621C259.004 15.5621 256.929 16.4245 255.014 17.8044C254.855 17.9769 254.695 18.1494 254.376 18.3219C255.014 16.9419 255.972 15.7345 257.249 15.0445C259.164 14.0096 261.398 14.8721 263.313 15.907C261.717 17.1145 260.121 18.3219 258.525 19.5294C257.249 20.3918 255.493 21.4268 254.057 20.5643C254.216 20.5643 254.376 20.3918 254.376 20.2193C254.376 20.0468 254.216 19.8744 254.057 19.8744C254.376 19.5294 254.695 19.3569 255.014 19.0119C256.77 17.632 258.845 16.7695 261.079 16.7695C261.717 16.4245 261.717 15.5621 261.239 15.5621ZM238.097 20.0468C238.416 19.7018 237.937 19.0119 237.618 19.3568C236.66 20.3918 235.543 21.4268 234.426 22.4617C234.426 22.2892 234.585 22.1167 234.585 21.9442C234.905 20.9093 235.543 20.0468 236.501 19.3568C238.097 18.1494 240.171 17.6319 242.087 17.8044C241.289 19.5294 240.331 21.4268 239.054 22.8067C237.777 24.1866 235.703 25.0491 233.947 24.0142C235.383 22.8067 236.82 21.4267 238.097 20.0468ZM210.965 19.1843C210.486 19.8743 209.847 20.5643 209.209 21.0818C207.932 22.1167 206.336 22.9792 204.74 23.1517C203.942 23.3242 202.506 23.3242 201.708 22.9792C201.867 22.8067 202.027 22.6342 202.187 22.2892C203.623 20.7368 205.379 19.5294 207.294 18.6669C207.294 18.6669 207.294 18.6669 207.453 18.6669C208.89 17.9769 210.486 17.4594 211.922 16.7695C211.922 17.6319 211.284 18.4944 210.965 19.1843ZM200.91 20.9093C201.069 19.8743 202.027 19.1844 202.665 18.6669C203.463 18.1494 204.421 17.4595 205.379 17.1145C206.655 16.597 208.092 16.597 209.528 16.597C208.89 16.9419 208.092 17.1144 207.453 17.4594C205.379 18.1494 203.623 19.3568 202.027 20.9093C201.708 21.2543 201.229 21.7717 200.91 22.1167C200.91 22.1167 200.75 21.5992 200.91 20.9093ZM185.588 21.7717C185.907 20.9093 186.546 20.0468 187.184 19.5294C188.78 18.1494 191.015 17.632 193.089 17.287C194.207 17.1145 195.164 16.7695 196.281 16.4245C195.803 18.4944 195.005 20.5643 193.728 22.1167C193.089 22.9792 192.291 23.8416 191.334 24.5316C190.376 25.2216 189.419 25.9116 188.301 25.9116C187.503 25.9116 186.705 25.5666 186.067 24.8766C188.301 23.8417 190.057 21.7717 191.972 20.2193C192.77 19.5293 193.568 18.8394 194.366 18.3219C194.685 18.1494 194.366 17.4594 194.047 17.6319C191.174 19.5293 188.94 22.6342 185.907 24.1867C185.907 24.0142 185.907 23.8416 185.748 23.6692C185.588 23.6692 185.588 23.4967 185.429 23.4967C185.429 23.3242 185.269 23.1517 185.269 22.9792C185.269 22.6342 185.429 22.1167 185.588 21.7717ZM148.721 20.3918C148.561 20.0468 148.561 19.8743 148.401 19.5294C148.082 18.4944 147.763 17.6319 147.603 16.597C147.284 15.562 147.125 14.5271 147.284 13.3196C147.284 12.2847 147.603 11.0772 148.082 10.2148C148.242 9.8698 147.763 9.5248 147.603 9.86978C146.486 11.7672 146.486 14.1821 146.965 16.252C147.125 17.287 147.444 18.3219 147.763 19.5294C147.923 19.8743 147.923 20.2193 148.082 20.3918C148.082 20.3918 148.082 20.3918 148.082 20.5643C147.923 20.9093 147.444 20.9093 147.284 20.7368C146.965 20.5643 146.646 20.2193 146.327 19.8744C145.688 19.1844 145.369 18.3219 145.209 17.4594C144.731 15.3895 145.529 13.1471 146.646 11.5947C147.284 10.7322 147.923 9.86978 148.561 9.00732C149.04 9.69729 149.519 10.5597 149.838 11.4222C150.317 12.2847 150.636 13.3196 150.955 14.3546C151.115 15.3895 151.274 16.4245 151.115 17.4594C150.955 18.3219 150.636 19.0119 150.157 19.7019C149.678 19.7019 149.199 20.0468 148.721 20.3918ZM131.484 23.1517C129.888 22.8067 128.292 22.1167 127.015 21.0818C126.377 20.5643 125.738 19.8743 125.419 19.1843C125.1 18.6669 124.461 17.8044 124.302 16.942C125.738 17.6319 127.334 18.1494 128.771 18.8394C128.771 18.8394 128.771 18.8394 128.93 18.8394C130.845 19.5294 132.601 20.7368 134.037 22.4617C134.197 22.6342 134.357 22.8067 134.516 23.1517C133.718 23.3242 132.282 23.3242 131.484 23.1517ZM135.155 22.4617C134.835 22.1168 134.357 21.5993 134.037 21.2543C132.441 19.7018 130.686 18.4944 128.611 17.8044C127.973 17.4594 127.175 17.287 126.536 16.942C127.973 16.942 129.409 16.9419 130.686 17.4594C131.643 17.8044 132.601 18.3219 133.399 19.0119C134.197 19.5294 134.995 20.2193 135.155 21.2543C135.633 21.5993 135.474 22.1168 135.155 22.4617ZM97.4891 22.6342C96.2123 21.2543 95.2547 19.3568 94.4567 17.6319C96.3719 17.4594 98.4467 17.9769 100.043 19.1843C101 19.8743 101.479 20.7368 101.958 21.7717C101.958 21.9442 102.117 22.1167 102.117 22.2892C101 21.4268 99.8831 20.2193 98.9255 19.1843C98.6063 18.8394 97.9679 19.3569 98.4467 19.8744C99.7235 21.2543 101.16 22.6342 102.756 23.6692C100.841 24.8766 98.7659 24.0141 97.4891 22.6342ZM82.0079 20.3918C80.5715 21.4268 78.8159 20.3918 77.5391 19.3568C75.9431 18.1494 74.3471 16.9419 72.7511 15.7345C74.5067 14.872 76.9007 14.0096 78.8159 14.872C80.2523 15.562 81.0503 16.7695 81.6887 18.1494C81.5291 17.9769 81.3695 17.8044 81.0503 17.6319C79.2947 16.252 77.0603 15.562 74.8259 15.3896C74.3471 15.3896 74.3471 16.252 74.8259 16.252C77.0603 16.252 79.1351 17.1145 80.8907 18.4944C81.2099 18.8394 81.5291 19.0119 81.8483 19.3568C81.6887 19.3568 81.5291 19.5294 81.5291 19.7019C81.6887 20.2193 81.8483 20.3918 82.0079 20.3918ZM24.5519 27.809H24.3923C23.4347 27.9814 22.4771 27.809 21.6791 27.2915C20.5619 26.774 19.4447 25.9116 19.2851 24.5316C19.1255 23.1517 20.0831 21.7717 21.2003 21.0818C22.3175 20.3918 23.7539 20.2193 24.8711 20.7368C25.5095 21.0818 25.9883 21.4268 26.4671 21.9442C26.9459 22.4617 27.2651 23.1517 27.7439 23.8417C27.7439 23.8417 27.7439 24.0142 27.9035 24.0142C27.9035 24.1867 27.9035 24.5316 27.9035 24.7041C27.9035 24.8766 28.0631 25.0491 28.0631 25.2216C27.9035 25.0491 27.5843 25.0491 27.4247 25.0491C26.7863 24.8766 26.1479 24.8766 25.6691 25.0491C25.3499 25.0491 25.1903 25.2216 25.0307 25.5666C24.8711 25.9116 24.8711 26.2566 25.0307 26.6015C25.1903 27.119 25.6691 27.2915 26.1479 27.6365C25.5095 27.6365 25.0307 27.809 24.5519 27.809ZM30.6167 27.9815C30.4571 27.9815 30.4571 28.154 30.2975 28.154C30.2975 28.4989 29.9783 28.4989 29.6591 28.6714C29.3399 28.8439 29.0207 29.0164 28.7015 29.1889C28.0631 29.3614 27.4247 29.7064 26.7863 29.7064C26.3075 29.7064 25.5095 29.7064 25.3499 29.3614C25.1903 29.1889 25.3499 28.8439 25.5095 28.6714C25.6691 28.4989 25.9883 28.3265 26.3075 28.3265C26.9459 28.154 27.5843 28.154 28.2227 28.3265C28.7015 28.499 28.8611 27.809 28.3823 27.6365C27.7439 27.464 27.1055 27.2915 26.6267 26.9465C26.3075 26.774 26.1479 26.774 25.8287 26.6015C25.6691 26.429 25.5095 26.429 25.3499 26.084C25.1903 25.739 25.6691 25.5666 25.9883 25.5666C26.9459 25.5666 27.9035 25.9116 28.5419 26.6015C28.8611 26.9465 29.3399 26.429 29.0207 26.084C28.7015 25.5666 28.3823 25.0491 28.3823 24.3591C28.3823 24.1866 28.2227 23.8416 28.3823 23.6692C28.3823 23.4967 28.7015 23.4967 28.8611 23.4967C29.1803 23.4967 29.4995 23.8417 29.8187 24.1867C30.4571 25.0491 30.6167 26.2566 30.7763 27.464C30.6167 27.809 30.6167 27.809 30.6167 27.9815ZM5.08068 37.641C3.96348 37.641 2.68668 37.1236 2.04828 36.0886C1.56948 35.5711 1.40988 34.8811 1.40988 34.0187C1.40988 33.3287 1.72908 32.6387 2.04828 32.1213C2.84628 31.0863 4.12308 30.2239 5.39988 30.2239C6.51708 30.2239 7.63428 30.7414 8.27268 31.7763L8.43228 31.9488C8.59188 32.2938 8.75148 32.6387 8.91108 32.9837C9.07068 33.1562 9.23028 33.5012 9.23028 33.6737C8.59188 33.6737 8.11308 33.8462 7.63428 34.1912C7.15548 34.5362 6.83629 35.2261 7.15548 35.7436C7.31508 35.9161 7.63428 36.0886 7.79388 36.0886C7.95348 36.0886 8.11308 36.0886 8.43228 36.0886C7.47468 37.1236 6.19788 37.641 5.08068 37.641ZM10.3475 36.2611C10.0283 36.7786 9.70908 37.1235 9.38988 37.4685C9.23028 37.641 9.07068 37.8135 8.75148 37.8135C8.75148 37.8135 8.75148 37.8135 8.59188 37.8135C8.59188 37.8135 8.59188 37.8135 8.59188 37.641C8.59188 37.4685 8.75148 37.2961 8.91108 37.1236C9.07068 36.9511 9.23028 36.7786 9.38988 36.6061C9.70908 36.2611 10.1879 36.0886 10.5071 35.9161C10.5071 35.9161 10.3475 36.0886 10.3475 36.2611ZM10.9859 34.8811C10.8263 35.2261 10.8263 35.3987 10.8263 35.3987C10.8263 35.2262 10.6667 35.0536 10.3475 35.0536C9.70908 35.2261 9.23028 35.3987 8.59188 35.3987C8.27268 35.3987 8.11308 35.3986 7.79388 35.2262C7.63428 35.2262 7.47468 35.2261 7.63428 35.0536C7.63428 34.8812 7.95348 34.7087 8.11308 34.5362C8.27268 34.3637 8.59188 34.3637 8.91108 34.1912C9.23028 34.1912 9.38988 34.1912 9.70908 34.1912H9.86868C10.0283 34.3637 10.0283 34.3637 10.1879 34.5362C10.3475 34.7087 10.6667 34.7087 10.6667 34.3637C10.8263 33.8462 10.5071 33.6737 10.1879 33.5012C9.86868 33.1562 9.70908 32.8112 9.38988 32.2938C9.23028 31.9488 9.07068 31.7763 9.07068 31.4313C9.07068 31.2588 8.91108 30.9138 9.07068 30.7413C9.07068 30.7413 9.23028 30.7413 9.23028 30.5688C9.38988 30.5688 9.38988 30.5688 9.54948 30.5688C9.70908 30.5688 9.86868 30.7414 10.0283 30.9138C10.6667 31.6038 10.8263 32.6388 10.9859 33.6737C10.8263 34.3637 10.8263 34.7087 10.9859 34.8811C10.9859 34.7087 10.9859 34.8811 10.9859 34.8811ZM82.6463 32.4663C78.1775 33.8462 73.7087 35.0536 69.0803 35.7436C64.7711 36.4336 60.3023 36.4336 55.9931 35.9161C53.7587 35.7436 51.6839 35.3986 49.4495 34.8811C58.5467 32.1213 67.0055 27.464 76.2623 25.3941C81.3695 24.1866 86.4767 24.1866 91.4243 25.5666C93.6587 26.2565 95.8931 27.119 97.9679 28.154C93.0203 29.5339 87.7535 30.9138 82.6463 32.4663ZM97.1699 37.641C97.0103 37.641 96.6911 37.4685 96.5315 37.4685C96.5315 37.4685 96.3719 37.4685 96.3719 37.641L96.6911 37.4685C97.1699 37.296 97.4891 36.9511 97.9679 36.7786L100.362 35.3987C101.798 34.5362 103.235 33.3287 104.671 34.0187C103.235 34.3637 101.798 35.0536 100.521 35.9161C100.043 36.2611 100.521 36.951 101 36.6061C102.277 35.7436 103.554 35.0536 104.99 34.7086C103.713 37.8135 99.8831 38.5035 97.1699 37.641ZM118.875 46.0931C117.439 47.4731 115.524 48.3355 113.768 47.9906C114.885 46.4381 115.364 44.3682 116.322 42.6433C117.279 40.5734 118.875 39.021 121.11 39.366C120.471 39.8834 119.833 40.4009 119.354 41.0909C117.918 42.9883 117.279 45.5757 115.205 46.6106C114.726 46.7831 115.205 47.6456 115.683 47.3006C117.599 46.2656 118.397 44.1958 119.514 42.2983C119.993 41.4359 120.791 40.7459 121.429 40.0559C121.11 42.2983 120.312 44.5407 118.875 46.0931ZM134.995 46.0931C134.516 47.9905 133.559 49.888 132.441 51.4404C130.686 54.3728 128.132 56.9601 124.94 57.9951C126.377 55.4077 126.696 52.3029 127.334 49.198C127.653 47.4731 128.132 45.7481 128.93 44.1957C129.728 42.6433 131.165 40.7459 133.08 41.2634H133.239C130.845 45.7482 129.728 51.2679 126.696 55.4077C126.377 55.7527 127.015 56.4427 127.334 55.9252C130.526 51.7854 131.484 46.0931 134.037 41.6083C135.314 42.4708 135.474 44.5407 134.995 46.0931ZM155.583 35.7436V35.9161C154.945 36.4336 154.307 37.1236 153.668 37.8135C151.434 40.2284 149.678 42.9883 148.242 45.9206C147.444 47.6456 146.805 49.3705 146.167 51.2679C146.007 51.7854 146.646 51.9579 146.805 51.4404C147.763 48.3355 149.04 45.2307 150.795 42.4708C152.072 40.4009 153.668 38.5035 155.424 36.9511C155.424 40.2284 155.264 43.5058 153.987 46.4381C153.349 47.9906 152.391 49.3705 151.274 50.5779C150.157 51.7854 148.88 52.9928 147.603 54.0278C147.284 54.2003 146.965 54.5452 146.486 54.7177C146.327 54.8902 146.167 54.8903 146.007 55.0627C145.848 55.0627 145.848 55.2352 145.688 55.2352H145.529V55.0627C145.529 54.8903 145.529 54.8902 145.369 54.7177C145.369 54.5452 145.209 54.2003 145.209 54.0278C145.05 53.5103 144.89 53.1653 144.89 52.6479C144.571 50.9229 144.411 49.0255 144.571 47.3006C144.731 44.0233 146.007 40.9184 147.923 38.331C148.88 37.1235 149.997 36.0886 151.115 35.2262C152.232 34.5362 153.987 33.6737 155.105 34.7086C155.424 35.2261 155.583 35.3986 155.583 35.7436ZM166.436 37.4685C166.596 37.4685 166.596 37.4685 166.755 37.296C167.075 37.8135 167.234 38.5035 167.394 39.0209C168.192 41.2633 168.351 43.8507 168.351 46.2656C168.351 47.6456 168.351 49.198 168.192 50.5779C168.192 51.0954 168.83 51.0954 168.83 50.5779C168.99 47.9906 169.149 45.2307 168.83 42.6433C168.671 40.7459 168.192 38.8485 167.394 37.296C167.713 37.296 167.873 37.4685 168.192 37.641C168.671 37.986 169.149 38.676 169.469 39.1934C170.267 40.4009 170.745 41.6084 171.065 42.9883C171.703 45.7482 171.384 48.6805 170.426 51.2679C169.947 52.6478 169.309 53.8553 168.511 54.8902C167.713 52.4754 166.596 50.2329 165.798 47.8181C165 45.4032 164.361 42.6433 165 40.0559C165 39.3659 165.479 38.1585 166.436 37.4685C166.277 37.4685 166.277 37.4685 166.436 37.4685ZM202.346 41.6083C204.9 46.0931 205.857 51.7854 209.049 55.9252C209.369 56.2702 210.007 55.7527 209.688 55.4077C206.655 51.2679 205.538 45.7482 203.144 41.2634H203.304C205.219 40.7459 206.655 42.6433 207.453 44.1957C208.251 45.7481 208.73 47.4731 209.049 49.198C209.688 52.1304 210.007 55.2352 211.443 57.9951C208.251 56.9601 205.698 54.3728 203.942 51.4404C202.985 49.7155 201.867 47.9905 201.389 46.0931C200.91 44.5407 201.069 42.4708 202.346 41.6083ZM221.339 46.4381C219.264 45.4032 218.466 42.8158 217.189 40.9184C216.71 40.2284 216.072 39.7109 215.433 39.1934C217.508 38.8485 219.264 40.4009 220.221 42.4708C221.019 44.1957 221.658 46.2656 222.775 47.8181C220.86 48.163 218.945 47.4731 217.668 45.9206C216.231 44.3682 215.433 42.1258 215.274 39.8834C216.072 40.5734 216.71 41.2634 217.189 42.1258C218.306 43.8508 219.104 46.0931 221.019 47.1281C221.339 47.4731 221.817 46.7831 221.339 46.4381ZM236.022 35.7436C234.745 34.8811 233.309 34.1912 231.872 33.8462C233.468 33.1562 234.905 34.3637 236.181 35.2262L238.575 36.6061C239.054 36.7786 239.373 37.1235 239.852 37.296L240.171 37.4685C240.171 37.4685 240.012 37.4685 240.012 37.296C239.852 37.296 239.533 37.4685 239.373 37.4685C236.501 38.331 232.83 37.641 231.713 34.3637C233.149 34.7087 234.426 35.3987 235.703 36.2611C236.022 36.7786 236.501 36.0886 236.022 35.7436ZM185.269 29.8789C185.588 30.3964 185.748 31.0863 186.067 31.6038C185.109 31.2588 184.152 30.7413 183.194 30.3963C183.833 30.2238 184.471 30.0514 185.269 29.8789ZM181.439 24.3591C182.396 25.3941 183.354 26.4291 184.152 27.6365C184.471 28.154 184.631 28.4989 184.95 29.0164C183.992 29.3614 182.875 29.5339 181.917 29.8789C180.162 29.1889 178.406 28.4989 176.651 27.809C176.81 27.6365 177.129 27.2915 177.289 27.119C177.289 27.119 177.449 27.119 177.449 26.9465C178.566 25.9115 179.364 24.5316 180.002 23.1517V22.9792C180.481 23.4967 180.96 23.8416 181.439 24.3591ZM175.853 14.0096C175.533 12.4572 175.374 10.9048 175.374 9.35233C175.374 7.7999 175.374 6.07494 175.693 4.52251C175.853 3.83255 176.012 2.97011 176.331 2.28014C176.331 2.10764 176.491 2.10762 176.491 1.93513L176.651 2.10763C176.97 2.45262 177.129 2.62511 177.449 2.9701C178.406 4.17754 179.364 5.38501 180.321 6.76494C181.917 9.35233 183.194 12.6296 183.035 15.7345C182.875 17.9769 181.917 20.0468 180.481 21.4268C181.119 19.1844 181.119 16.942 180.8 14.6996C180.321 11.2497 179.204 8.14487 178.087 4.86752C178.087 4.69503 177.927 4.52252 177.608 4.69502C177.449 4.69502 177.289 5.04003 177.449 5.21252C178.087 6.93745 178.725 8.66233 179.204 10.5597C180.002 13.4921 180.641 16.597 180.162 19.5294C180.002 20.3918 179.843 21.2543 179.523 22.1167C179.364 22.1167 179.204 21.9442 179.204 21.9442C179.045 21.7717 178.725 21.7718 178.566 21.5993C177.129 19.3569 176.331 16.597 175.853 14.0096ZM163.563 20.5643C166.755 20.0468 170.107 20.0469 173.299 20.7368C174.895 21.0818 176.491 21.4268 178.087 22.1167C178.406 22.6342 178.725 22.9792 179.045 23.4967C178.566 24.5316 177.927 25.5666 177.129 26.429C177.129 26.429 176.97 26.429 176.97 26.6015L175.853 27.809C175.533 27.6365 175.214 27.6365 174.895 27.464C173.937 27.119 172.98 26.774 171.863 26.429C171.863 26.2565 172.022 26.084 172.022 26.084C172.182 25.739 172.341 25.3941 172.182 25.2216C172.022 24.8766 171.703 24.8766 171.384 24.7041C170.267 24.1866 169.149 23.6692 167.873 24.0142C166.596 24.3591 165.638 25.2216 164.84 26.084C164.681 26.2565 164.681 26.2565 164.681 26.429C163.563 26.774 162.287 27.119 161.169 27.464C160.85 27.6365 160.531 27.6365 160.212 27.809L159.095 26.6015C159.095 26.6015 158.935 26.6015 158.935 26.429C158.137 25.5666 157.499 24.5316 157.02 23.4967C157.499 22.9792 157.818 22.2892 158.297 21.5993C160.212 21.2543 161.967 20.7368 163.563 20.5643ZM169.947 26.084C169.309 26.084 168.83 26.084 168.351 26.084C167.553 25.9115 166.596 26.084 165.798 26.2565C166.436 25.7391 167.075 25.0491 167.713 24.8766C168.671 24.5316 169.628 24.7041 170.586 25.0491C170.905 25.2216 171.065 25.2216 171.384 25.3941C171.543 25.3941 171.543 25.5666 171.703 25.5666C171.543 25.7391 171.543 26.084 171.384 26.2565C170.905 26.084 170.426 26.084 169.947 26.084ZM170.745 26.774C170.267 27.2915 169.628 27.464 168.83 27.464C168.351 27.464 167.713 27.2915 167.234 27.119C166.915 27.119 166.596 26.9465 166.436 26.774C167.075 26.6016 167.713 26.6016 168.351 26.774C168.83 26.774 169.309 26.9465 169.947 26.774C170.107 26.774 170.426 26.774 170.745 26.774ZM157.179 22.6342C157.179 22.4617 157.179 22.4617 157.179 22.6342C157.02 22.4617 156.86 22.4617 156.86 22.4617C157.179 22.2892 157.339 22.2892 157.658 22.2892L157.499 22.4617C157.339 22.2892 157.339 22.4617 157.179 22.6342ZM153.509 15.907C153.349 12.6297 154.466 9.52483 156.222 6.93745C157.02 5.55751 157.977 4.35004 159.095 3.1426C159.414 2.79761 159.573 2.62512 159.893 2.28014L160.052 2.10763C160.052 2.28013 160.212 2.28015 160.212 2.45264C160.531 3.14261 160.691 4.00505 160.85 4.69502C161.169 6.24745 161.329 7.9724 161.169 9.52483C161.169 11.0773 161.01 12.6297 160.691 14.1821C160.212 16.597 159.414 19.1844 158.297 21.2543C157.818 21.4268 157.339 21.5992 156.86 21.7717C156.701 21.0818 156.541 20.3918 156.381 19.7019C155.903 16.597 156.541 13.6646 157.339 10.7322C157.818 9.00732 158.456 7.1099 159.095 5.38497C159.095 5.21248 159.095 5.04001 158.935 4.86752C158.775 4.86752 158.616 4.86753 158.456 5.04002C157.339 8.14488 156.222 11.4222 155.743 14.872C155.424 17.1144 155.583 19.5294 156.062 21.5993C154.466 20.2193 153.509 17.9769 153.509 15.907ZM131.324 37.1236C126.057 37.641 120.631 36.9511 115.364 35.3987C113.928 34.8812 112.491 34.3637 111.055 33.8462C111.055 33.6737 110.895 33.5012 110.736 33.5012C110.417 33.5012 110.257 33.5012 109.938 33.3287C107.065 31.9488 104.192 30.3964 101.319 29.0164C101 28.8439 100.681 28.6715 100.362 28.499C104.352 27.6365 108.182 26.9465 112.172 26.429C121.589 25.3941 130.845 25.7391 140.102 27.464C144.411 28.3265 148.721 29.3614 153.03 30.3963C146.167 33.3287 139.145 36.4336 131.324 37.1236ZM154.626 29.8789C151.913 29.1889 149.359 28.4989 146.646 27.809H146.805C146.965 27.809 146.965 27.6365 146.965 27.6365C149.359 25.9116 152.072 24.3591 154.785 23.1517C155.264 22.9792 155.743 22.8067 156.222 22.6342C156.381 22.6342 156.381 22.8067 156.541 22.8067C156.541 22.9792 156.701 23.1517 156.701 23.3242C157.339 24.7041 158.137 26.084 159.254 27.119C159.254 27.119 159.414 27.119 159.414 27.2915C159.573 27.464 159.893 27.809 160.052 27.9815C158.137 28.4989 156.381 29.1889 154.626 29.8789ZM172.341 37.8135C172.98 39.021 173.937 40.0559 175.055 40.9184C175.693 41.4358 176.331 41.9534 176.97 42.2983C177.289 42.4708 177.608 41.9533 177.289 41.7808C175.374 40.4009 173.299 38.8485 172.501 36.6061C173.618 36.6061 174.895 37.296 175.693 38.1585C176.172 38.676 176.81 39.1935 177.129 39.711C177.608 40.2284 177.927 40.9184 178.247 41.7808C178.406 42.4708 178.566 43.3333 178.406 44.0233C177.129 43.3333 175.693 43.3333 174.416 42.8158C173.778 42.6433 173.139 42.2983 172.661 41.6083C172.182 40.9184 171.863 40.0559 171.703 39.1934C171.543 38.331 171.703 37.4685 172.022 36.7786C172.022 37.1236 172.182 37.4685 172.341 37.8135ZM171.863 32.8113C170.745 33.1563 169.628 33.5012 168.511 33.8462C168.351 33.8462 168.192 34.0187 168.192 34.1912H168.032H167.873C167.873 34.0187 167.713 34.0187 167.553 34.0187C166.436 33.6737 165.319 33.3287 164.202 32.9837C161.329 32.1213 158.616 31.2588 155.743 30.5688C158.775 29.3614 161.808 28.154 164.84 27.2915H165C165.159 27.2915 165.319 27.119 165.319 27.119C165.638 27.464 165.957 27.809 166.436 27.9815C166.915 28.1539 167.553 28.3265 168.032 28.3265C169.149 28.499 170.107 28.154 170.905 27.464C170.905 27.464 170.905 27.464 171.065 27.2915C174.097 28.154 177.129 29.3614 180.162 30.5688C177.608 31.0863 174.735 31.9488 171.863 32.8113ZM191.334 52.8203C191.174 53.3378 191.174 53.6828 191.015 54.2003C191.015 54.3728 190.855 54.7178 190.855 54.8902C190.855 55.0627 190.855 55.0628 190.695 55.2352V55.4077H190.536C190.376 55.4077 190.376 55.2352 190.217 55.2352C190.057 55.0628 189.897 55.0627 189.738 54.8902C189.419 54.7178 189.099 54.3728 188.621 54.2003C187.344 53.1653 186.067 51.9579 184.95 50.7504C183.833 49.543 182.875 48.1631 182.237 46.6106C180.96 43.6783 180.8 40.4009 180.8 37.1236C182.556 38.676 184.152 40.5734 185.429 42.6433C187.184 45.4032 188.461 48.508 189.419 51.6129C189.578 52.1304 190.217 51.7854 190.057 51.4404C189.578 49.543 188.78 47.8181 187.982 46.0931C186.546 43.1608 184.79 40.4009 182.556 37.986C181.917 37.2961 181.279 36.7786 180.641 36.0886V35.9161C180.641 35.9161 180.641 35.9161 180.641 35.7436C180.8 35.5711 180.96 35.2261 181.119 35.0536C182.396 34.0187 183.992 34.7086 185.109 35.5711C186.386 36.4336 187.503 37.4685 188.301 38.676C189.897 40.7459 191.015 43.1608 191.334 45.7482C191.334 45.7482 191.334 45.9206 191.334 46.0931C191.334 46.0931 191.334 46.0931 191.334 46.2656C191.334 46.7831 191.493 47.1281 191.493 47.6456C191.972 49.198 191.813 51.0954 191.334 52.8203ZM191.015 37.296C192.291 36.7785 193.568 37.2961 194.526 37.986C195.483 38.676 196.281 39.7109 196.76 40.7459C197.877 42.8158 198.197 45.2307 198.037 47.4731C197.877 48.5081 197.718 49.3705 197.239 50.4054C197.239 50.2329 197.079 49.888 196.92 49.7155C196.92 49.7155 197.079 49.543 196.92 49.3705C196.601 46.7831 196.281 44.0232 195.005 41.7808C194.366 40.5734 193.409 39.5385 192.451 38.676C191.813 38.1585 191.334 37.641 190.695 37.296C190.855 37.296 191.015 37.296 191.015 37.296ZM190.376 37.8135C190.855 38.1585 191.334 38.5035 191.653 38.8485C192.611 39.711 193.728 40.5734 194.366 41.6083C195.005 42.6433 195.483 43.8507 195.803 45.0582C196.122 46.2656 196.281 47.4731 196.441 48.853C196.281 48.6805 196.122 48.6805 195.962 48.508C195.643 48.3355 195.324 48.3356 195.164 48.3356C195.005 48.3356 194.685 48.1631 194.526 47.9906C194.047 47.8181 193.568 47.4731 193.249 47.1281C192.93 46.7831 192.611 46.2657 192.291 45.7482C191.972 43.8508 191.334 41.9533 190.376 40.2284C190.376 40.0559 190.376 40.0559 190.376 39.8834C190.217 39.1934 190.057 38.5035 190.376 37.8135ZM189.738 37.296C189.578 37.8135 189.419 38.331 189.578 38.8485C189.099 38.1585 188.621 37.4685 187.982 36.9511C187.503 36.4336 186.865 35.7436 186.227 35.3987C185.588 34.8812 184.79 34.3637 183.992 34.1912C183.194 33.8462 182.396 33.8462 181.598 34.1912C180.96 34.5362 180.321 34.8811 180.162 35.7436C178.725 34.5362 177.289 33.6737 175.693 32.8113C177.768 32.2938 179.683 31.6038 181.758 31.0863C183.354 31.7763 184.95 32.4663 186.705 33.1562C186.705 33.1562 186.705 33.3287 186.865 33.3287C187.184 34.8812 188.461 36.0886 189.738 37.296ZM234.905 29.0164C232.032 30.5688 229.159 32.1213 226.286 33.3287C225.967 33.3287 225.807 33.3287 225.488 33.5012C225.329 33.5012 225.169 33.6737 225.169 33.8462C223.733 34.5361 222.296 35.0537 220.86 35.3987C215.753 36.9511 210.326 37.4686 204.9 37.1236C198.675 36.6061 192.611 34.3637 186.865 32.1213C186.546 31.4313 186.227 30.5688 185.907 29.8789C189.259 29.0164 192.611 28.3265 195.962 27.6365C205.219 25.9116 214.476 25.5666 223.892 26.6015C227.882 27.119 231.872 27.809 235.703 28.6714C235.383 28.6714 235.224 28.8439 234.905 29.0164ZM280.231 35.9161C275.922 36.4336 271.453 36.2611 267.144 35.7436C262.515 35.0536 258.047 33.8462 253.578 32.4663C248.471 30.9138 243.363 29.5339 238.097 28.3265C240.171 27.2915 242.406 26.429 244.64 25.7391C249.588 24.1867 254.855 24.3591 259.802 25.5666C269.059 27.6365 277.518 32.2938 286.615 35.0536C284.7 35.3986 282.465 35.7436 280.231 35.9161ZM327.792 37.8135C327.792 37.8135 327.632 37.8135 327.792 37.8135C327.473 37.8135 327.313 37.641 326.994 37.4685C326.675 37.1235 326.196 36.7786 326.036 36.2611C325.877 36.0886 325.877 35.9161 325.717 35.7436C326.196 35.9161 326.515 36.0886 326.834 36.4336C326.994 36.6061 327.153 36.7786 327.313 36.9511C327.632 37.2961 327.632 37.4685 327.792 37.8135C327.792 37.641 327.792 37.8135 327.792 37.8135ZM327.792 35.3987C327.153 35.3987 326.515 35.2261 326.036 35.0536C325.877 35.0536 325.717 35.0537 325.557 35.3987C325.557 35.2262 325.398 35.2261 325.398 35.0536V34.8811C325.557 34.7087 325.557 34.3637 325.398 34.1912C325.557 33.1562 325.717 32.1213 326.355 31.4313C326.515 31.2588 326.675 31.0863 326.834 31.0863C326.994 31.0863 326.994 31.0863 327.153 31.0863C327.153 31.0863 327.313 31.0863 327.313 31.2588C327.473 31.4313 327.313 31.7763 327.313 31.9488C327.153 32.2938 327.153 32.4663 326.994 32.8113C326.834 33.1563 326.515 33.6737 326.196 34.0187C325.877 34.1912 325.557 34.3637 325.717 34.8811C325.717 35.2261 326.036 35.2261 326.196 35.0536C326.355 34.8812 326.355 34.8811 326.515 34.7086H326.675C326.994 34.7086 327.153 34.7086 327.473 34.7086C327.792 34.7086 327.951 34.8812 328.271 35.0536C328.43 35.2261 328.749 35.2261 328.749 35.5711C328.749 35.7436 328.59 35.7436 328.59 35.7436C328.271 35.3986 327.951 35.3987 327.792 35.3987ZM334.495 36.0886C333.697 37.1236 332.58 37.641 331.463 37.641C330.186 37.641 329.069 37.1236 328.111 36.0886C328.271 36.0886 328.43 36.0886 328.749 36.0886C329.069 36.0886 329.228 35.9161 329.388 35.7436C329.707 35.2261 329.388 34.5362 328.909 34.1912C328.43 33.8462 327.792 33.6737 327.313 33.6737C327.473 33.5012 327.632 33.3287 327.632 32.9837C327.792 32.6387 327.951 32.2938 328.111 31.9488C328.111 31.9488 328.271 31.9488 328.271 31.7763C328.909 30.7414 330.026 30.2239 331.143 30.2239C332.42 30.2239 333.697 31.0863 334.495 32.1213C334.974 32.6387 335.133 33.3287 335.133 34.0187C335.133 34.7087 334.814 35.3986 334.495 36.0886Z" fill="#CBC7B7"/>
</svg>
